<?xml version="1.0" encoding="UTF-8" standalone="no"?>
<svg
   width="1661"
   height="1173.81"
   version="1.1"
   id="svg458"
   sodipodi:docname="Architecture.svg"
   inkscape:version="1.3.2 (091e20e, 2023-11-25, custom)"
   xmlns:inkscape="http://www.inkscape.org/namespaces/inkscape"
   xmlns:sodipodi="http://sodipodi.sourceforge.net/DTD/sodipodi-0.dtd"
   xmlns:xlink="http://www.w3.org/1999/xlink"
   xmlns="http://www.w3.org/2000/svg"
   xmlns:svg="http://www.w3.org/2000/svg"
   xmlns:lucid="lucid">
  <defs
     id="defs459" />
  <sodipodi:namedview
     id="namedview458"
     pagecolor="#ffffff"
     bordercolor="#000000"
     borderopacity="0.25"
     inkscape:showpageshadow="2"
     inkscape:pageopacity="0.0"
     inkscape:pagecheckerboard="0"
     inkscape:deskcolor="#d1d1d1"
     inkscape:zoom="1"
     inkscape:cx="1002.5"
     inkscape:cy="655.5"
     inkscape:window-width="2560"
     inkscape:window-height="1369"
     inkscape:window-x="-8"
     inkscape:window-y="-8"
     inkscape:window-maximized="1"
     inkscape:current-layer="g458" />
  <g
     transform="translate(-339.5 -139.4999999999999)"
     lucid:page-tab-id="0_0"
     id="g458">
    <g
       class="lucid-layer"
       lucid:layer-id="uMw8iI~o.ZC9"
       display="block"
       id="g10">
      <path
         d="M360 160h540v980H360z"
         stroke="#3a414a"
         fill="#e8e2c8"
         id="path1"
         style="stroke:#3a414a;stroke-opacity:0" />
      <path
         d="M900 160h540v980H900z"
         stroke="#3a414a"
         fill="#ffd9d9"
         id="path2"
         style="stroke:#3a414a;stroke-opacity:0" />
      <path
         d="M1440 160h540v980h-540z"
         stroke="#3a414a"
         fill="#b8f5ed"
         id="path3"
         style="stroke:#3a414a;stroke-opacity:0" />
      <path
         d="M510 206a6 6 0 0 1 6-6h228a6 6 0 0 1 6 6v48a6 6 0 0 1-6 6H516a6 6 0 0 1-6-6z"
         stroke="#000"
         fill="#f7f4e4"
         id="path4" />
      <use
         xlink:href="#a"
         transform="matrix(1,0,0,1,515,205) translate(103.91975308641975 30.27777777777778)"
         id="use4" />
      <path
         d="M1050 206a6 6 0 0 1 6-6h228a6 6 0 0 1 6 6v48a6 6 0 0 1-6 6h-228a6 6 0 0 1-6-6z"
         stroke="#000"
         fill="#fff0f0"
         id="path5" />
      <use
         xlink:href="#b"
         transform="matrix(1,0,0,1,1055,205) translate(88.48765432098764 30.27777777777778)"
         id="use5" />
      <path
         d="M1590 206a6 6 0 0 1 6-6h228a6 6 0 0 1 6 6v48a6 6 0 0 1-6 6h-228a6 6 0 0 1-6-6z"
         stroke="#000"
         fill="#d7faf5"
         id="path6" />
      <use
         xlink:href="#c"
         transform="matrix(1,0,0,1,1595,205) translate(57.03703703703703 30.27777777777778)"
         id="use6" />
      <path
         d="M820 980h770v312.8H820z"
         stroke="#3a414a"
         fill="#dedeff"
         id="path7" />
      <path
         d="M1047.5 1226a6 6 0 0 1 6-6h303a6 6 0 0 1 6 6v48a6 6 0 0 1-6 6h-303a6 6 0 0 1-6-6z"
         stroke="#000"
         fill="#f2f2ff"
         id="path8" />
      <use
         xlink:href="#d"
         transform="matrix(1,0,0,1,1052.5,1225) translate(31.69753086419753 30.27777777777778)"
         id="use8" />
      <use
         xlink:href="#e"
         transform="matrix(1,0,0,1,1052.5,1225) translate(114.22839506172839 30.27777777777778)"
         id="use9" />
      <use
         xlink:href="#f"
         transform="matrix(1,0,0,1,1052.5,1225) translate(198.05555555555554 30.27777777777778)"
         id="use10" />
    </g>
    <g
       class="lucid-layer"
       lucid:layer-id="CMw8po5sPoo6"
       display="block"
       id="g94">
      <path
         d="M541.1 873a6 6 0 0 1 6-6h193.94a6 6 0 0 1 6 6v139a6 6 0 0 1-6 6H547.1a6 6 0 0 1-6-6z"
         fill="#fff"
         id="path10" />
      <path
         d="M541.1 944v38h205.94v-38"
         fill="#e6e6e6"
         id="path11" />
      <path
         d="M541.1 907v-34a6 6 0 0 1 6-6h193.94a6 6 0 0 1 6 6v34"
         fill="#ccc"
         id="path12" />
      <path
         d="M541.1 873a6 6 0 0 1 6-6h193.94a6 6 0 0 1 6 6v139a6 6 0 0 1-6 6H547.1a6 6 0 0 1-6-6zM541.1 907h205.94"
         stroke="#3a414a"
         fill="none"
         id="path13" />
      <use
         xlink:href="#g"
         transform="matrix(1,0,0,1,551.1137438077492,867.0068750624223) translate(-0.549382716049351 24.444444444444443)"
         id="use13" />
      <use
         xlink:href="#h"
         transform="matrix(1,0,0,1,546.1137438077492,909.5068750624223) translate(0 20.444444444444443)"
         id="use14" />
      <use
         xlink:href="#i"
         transform="matrix(1,0,0,1,546.1137438077492,946.5068750624223) translate(0 20.444444444444443)"
         id="use15" />
      <use
         xlink:href="#j"
         transform="matrix(1,0,0,1,546.1137438077492,983.5068750624223) translate(0 20.444444444444443)"
         id="use16" />
      <path
         d="M544.08 684a6 6 0 0 1 6-6h188a6 6 0 0 1 6 6v28a6 6 0 0 1-6 6h-188a6 6 0 0 1-6-6z"
         stroke="#3a414a"
         fill="#fff"
         id="path16" />
      <use
         xlink:href="#k"
         transform="matrix(1,0,0,1,556.0758292051661,690.0045833749482) translate(24.7283950617284 17.77777777777778)"
         id="use17" />
      <path
         d="M544.08 495a6 6 0 0 1 6-6h188a6 6 0 0 1 6 6v28a6 6 0 0 1-6 6h-188a6 6 0 0 1-6-6z"
         stroke="#3a414a"
         fill="#fff"
         id="path17" />
      <use
         xlink:href="#l"
         transform="matrix(1,0,0,1,556.0758292051661,501.0022916874741) translate(32.783950617283956 17.77777777777778)"
         id="use18" />
      <path
         d="M544.08 400.5a6 6 0 0 1 6-6h188a6 6 0 0 1 6 6v28a6 6 0 0 1-6 6h-188a6 6 0 0 1-6-6z"
         stroke="#3a414a"
         fill="#fff"
         id="path18" />
      <use
         xlink:href="#m"
         transform="matrix(1,0,0,1,556.0758292051661,406.50114584373705) translate(25.37654320987655 17.77777777777778)"
         id="use19" />
      <path
         d="M544.08 589.5a6 6 0 0 1 6-6h188a6 6 0 0 1 6 6v28a6 6 0 0 1-6 6h-188a6 6 0 0 1-6-6z"
         stroke="#3a414a"
         fill="#fff"
         id="path19" />
      <use
         xlink:href="#n"
         transform="matrix(1,0,0,1,556.0758292051661,595.5034375312111) translate(-6.691358024691326 17.77777777777778)"
         id="use20" />
      <path
         d="M544.08 778.5a6 6 0 0 1 6-6h188a6 6 0 0 1 6 6v28a6 6 0 0 1-6 6h-188a6 6 0 0 1-6-6z"
         stroke="#3a414a"
         fill="#fff"
         id="path20" />
      <use
         xlink:href="#o"
         transform="matrix(1,0,0,1,556.0758292051661,784.5057292186852) translate(-12.8333333333333 17.77777777777778)"
         id="use21" />
      <path
         d="M550 306a6 6 0 0 1 6-6h188a6 6 0 0 1 6 6v28a6 6 0 0 1-6 6H556a6 6 0 0 1-6-6z"
         stroke="#3a414a"
         fill="#fff"
         id="path21" />
      <use
         xlink:href="#p"
         transform="matrix(1,0,0,1,562,312) translate(0.006172839506191963 17.77777777777778)"
         id="use22" />
      <path
         d="M1070 309.95a6 6 0 0 1 6-6h188a6 6 0 0 1 6 6v28a6 6 0 0 1-6 6h-188a6 6 0 0 1-6-6z"
         stroke="#3a414a"
         fill="#fff"
         id="path22" />
      <use
         xlink:href="#q"
         transform="matrix(1,0,0,1,1082,315.9547547328274) translate(2.444444444444457 17.77777777777778)"
         id="use23" />
      <path
         d="M1070 509.5a6 6 0 0 1 6-6h188a6 6 0 0 1 6 6v28a6 6 0 0 1-6 6h-188a6 6 0 0 1-6-6z"
         stroke="#3a414a"
         fill="#fff"
         id="path23" />
      <use
         xlink:href="#r"
         transform="matrix(1,0,0,1,1082,515.5034375312111) translate(4.882716049382722 17.77777777777778)"
         id="use24" />
      <path
         d="M1070 609.05a6 6 0 0 1 6-6h188a6 6 0 0 1 6 6v28a6 6 0 0 1-6 6h-188a6 6 0 0 1-6-6z"
         stroke="#3a414a"
         fill="#fff"
         id="path24" />
      <use
         xlink:href="#s"
         transform="matrix(1,0,0,1,1082,615.0521203295949) translate(-8.111111111111086 17.77777777777778)"
         id="use25" />
      <path
         d="m 1070,694.6 a 6,6 0 0 1 6,-6 h 188 a 6,6 0 0 1 6,6 v 28 a 6,6 0 0 1 -6,6 h -188 a 6,6 0 0 1 -6,-6 z"
         stroke="#3a414a"
         fill="#ffffff"
         id="path25" />
      <use
         xlink:href="#t"
         transform="translate(1104.6914,718.37858)"
         id="use26" />
      <path
         d="m 1070,799 c 0,-3.31371 2.6863,-6 6,-6 h 188 c 3.3137,0 6,2.68629 6,6 v 52 c 0,3.31371 -2.6863,6 -6,6 h -188 c -3.3137,0 -6,-2.68629 -6,-6 z"
         stroke="#3a414a"
         fill="#ffffff"
         id="path25-4"
         sodipodi:nodetypes="sssssssss" />
      <path
         d="M1660 309.5a6 6 0 0 1 6-6h188a6 6 0 0 1 6 6v28a6 6 0 0 1-6 6h-188a6 6 0 0 1-6-6z"
         stroke="#3a414a"
         fill="#fff"
         id="path26" />
      <use
         xlink:href="#u"
         transform="matrix(1,0,0,1,1672,315.50343753121115) translate(19.697530864197518 17.77777777777778)"
         id="use27" />
      <path
         d="M1660 369.28a6 6 0 0 1 6-6h188a6 6 0 0 1 6 6v28a6 6 0 0 1-6 6h-188a6 6 0 0 1-6-6z"
         stroke="#3a414a"
         fill="#fff"
         id="path27" />
      <use
         xlink:href="#v"
         transform="matrix(1,0,0,1,1672,375.2777789304031) translate(-1.938271604938251 17.77777777777778)"
         id="use28" />
      <path
         d="M1660 429.05a6 6 0 0 1 6-6h188a6 6 0 0 1 6 6v28a6 6 0 0 1-6 6h-188a6 6 0 0 1-6-6z"
         stroke="#3a414a"
         fill="#fff"
         id="path28" />
      <use
         xlink:href="#w"
         transform="matrix(1,0,0,1,1672,435.052120329595) translate(15.962962962962962 17.77777777777778)"
         id="use29" />
      <path
         d="M1660 570.5a6 6 0 0 1 6-6h188a6 6 0 0 1 6 6v28a6 6 0 0 1-6 6h-188a6 6 0 0 1-6-6z"
         stroke="#3a414a"
         fill="#fff"
         id="path29" />
      <use
         xlink:href="#x"
         transform="matrix(1,0,0,1,1672,576.5034375312111) translate(25.808641975308632 17.77777777777778)"
         id="use30" />
      <path
         d="M1660 630.5a6 6 0 0 1 6-6h188a6 6 0 0 1 6 6v28a6 6 0 0 1-6 6h-188a6 6 0 0 1-6-6z"
         stroke="#3a414a"
         fill="#fff"
         id="path30" />
      <use
         xlink:href="#y"
         transform="matrix(1,0,0,1,1672,636.5034375312111) translate(22.135802469135797 17.77777777777778)"
         id="use31" />
      <path
         d="M1660 690.5a6 6 0 0 1 6-6h188a6 6 0 0 1 6 6v28a6 6 0 0 1-6 6h-188a6 6 0 0 1-6-6z"
         stroke="#3a414a"
         fill="#fff"
         id="path31" />
      <use
         xlink:href="#z"
         transform="matrix(1,0,0,1,1672,696.5034375312111) translate(39.944444444444436 17.77777777777778)"
         id="use32" />
      <path
         d="m 1914,303.5 c 3.3137,0 6,2.68629 6,6 v 147.53312 c 0,3.31371 -2.6863,6 -6,6 h -48 c -3.3137,0 -6,-2.68629 -6,-6 V 309.5 c 0,-3.31371 2.6863,-6 6,-6 z"
         stroke="#3a414a"
         fill="#ffffff"
         id="path32"
         sodipodi:nodetypes="sssssssss" />
      <use
         xlink:href="#A"
         transform="matrix(6.123233995736766e-17,1,-1,6.123233995736766e-17,1907.9999999999998,315.50343753121115) translate(25.179012345679013 22.27777777777778)"
         id="use33" />
      <path
         d="M1914 564.5a6 6 0 0 1 6 6v148a6 6 0 0 1-6 6h-48a6 6 0 0 1-6-6v-148a6 6 0 0 1 6-6z"
         stroke="#3a414a"
         fill="#fff"
         id="path33" />
      <use
         xlink:href="#B"
         transform="matrix(6.123233995736766e-17,1,-1,6.123233995736766e-17,1907.9999999999998,576.5034375312111) translate(5.716049382716044 22.27777777777778)"
         id="use34" />
      <path
         d="M760.96 509h140.08a6 6 0 0 0 6-6V342.68a6 6 0 0 1 6-6h140.08"
         stroke="#3a414a"
         fill="none"
         id="path34" />
      <path
         d="M746.2 509l14.26-4.63v9.27zM1067.88 336.68l-14.26 4.63v-9.26z"
         stroke="#3a414a"
         fill="#3a414a"
         id="path35" />
      <path
         d="M760.96 414.5H894a6 6 0 0 0 6-6v-78.55a6 6 0 0 1 6-6h147.12"
         stroke="#3a414a"
         fill="none"
         id="path36" />
      <path
         d="M746.2 414.5l14.26-4.63v9.27zM1067.88 323.95l-14.26 4.64v-9.28z"
         stroke="#3a414a"
         fill="#3a414a"
         id="path37" />
      <path
         d="M1070 410.4a6 6 0 0 1 6-6h188a6 6 0 0 1 6 6v28a6 6 0 0 1-6 6h-188a6 6 0 0 1-6-6z"
         stroke="#3a414a"
         fill="#fff"
         id="path38" />
      <use
         xlink:href="#C"
         transform="matrix(1,0,0,1,1082,416.4060719344436) translate(8.555555555555557 17.77777777777778)"
         id="use38" />
      <path
         d="M527.2 509H496a6 6 0 0 0-6 6v166.23a6 6 0 0 0 6 6h31.2"
         stroke="#3a414a"
         fill="none"
         id="path39" />
      <path
         d="M541.96 509l-14.27 4.64v-9.27zM541.96 687.23l-14.27 4.63v-9.27z"
         stroke="#3a414a"
         fill="#3a414a"
         id="path40" />
      <path
         d="M644.08 624.5v36.62"
         stroke="#3a414a"
         fill="none"
         id="path41" />
      <path
         d="M644.58 624.52h-1V624h1z"
         stroke="#3a414a"
         stroke-width=".05"
         fill="#3a414a"
         id="path42" />
      <path
         d="M644.08 675.9l-4.64-14.28h9.27z"
         stroke="#3a414a"
         fill="#3a414a"
         id="path43" />
      <path
         d="M644.08 719v36.62"
         stroke="#3a414a"
         fill="none"
         id="path44" />
      <path
         d="M644.58 719.02h-1v-.5h1z"
         stroke="#3a414a"
         stroke-width=".05"
         fill="#3a414a"
         id="path45" />
      <path
         d="M644.08 770.4l-4.64-14.28h9.27z"
         stroke="#3a414a"
         fill="#3a414a"
         id="path46" />
      <path
         d="M644.08 813.5V850.13"
         stroke="#3a414a"
         fill="none"
         id="path47" />
      <path
         d="M644.58 813.52h-1v-.5h1z"
         stroke="#3a414a"
         stroke-width=".05"
         fill="#3a414a"
         id="path48" />
      <path
         d="M644.08 864.9l-4.64-14.28h9.27z"
         stroke="#3a414a"
         fill="#3a414a"
         id="path49" />
      <path
         d="M527.2 705.13H476a6 6 0 0 1-6-6V326a6 6 0 0 1 6-6h57.12"
         stroke="#3a414a"
         fill="none"
         id="path50" />
      <path
         d="M541.96 705.13l-14.27 4.63v-9.27zM547.88 320l-14.26 4.63v-9.26z"
         stroke="#3a414a"
         fill="#3a414a"
         id="path51" />
      <path
         d="M760.96 603.5H914a6 6 0 0 0 6-6V430.4a6 6 0 0 1 6-6h127.12"
         stroke="#3a414a"
         fill="none"
         id="path52" />
      <path
         d="M746.2 603.5l14.26-4.63v9.27zM1067.88 424.4l-14.26 4.64v-9.27z"
         stroke="#3a414a"
         fill="#3a414a"
         id="path53" />
      <path
         d="M760.96 698H924a6 6 0 0 0 6-6V441.9a6 6 0 0 1 6-6h117.12"
         stroke="#3a414a"
         fill="none"
         id="path54" />
      <path
         d="M746.2 698l14.26-4.63v9.27zM1067.88 435.9l-14.26 4.62v-9.27z"
         stroke="#3a414a"
         fill="#3a414a"
         id="path55" />
      <path
         d="M760.96 709.4H934a6 6 0 0 0 6-6V529.5a6 6 0 0 1 6-6h107.12"
         stroke="#3a414a"
         fill="none"
         id="path56" />
      <path
         d="M746.2 709.4l14.26-4.64v9.27zM1067.88 523.5l-14.26 4.64v-9.27z"
         stroke="#3a414a"
         fill="#3a414a"
         id="path57" />
      <path
         d="M 760.96,792.5 H 944 c 3.31371,0 6,-2.68629 6,-6 V 629.06 c 0,-3.31371 2.68629,-6 6,-6 h 97.12 m 224.7039,218.24596 h 217.04 c 3.3137,0 6,-2.68629 6,-6 v -113.44 c 0,-3.31371 2.6863,-6 6,-6 h 143.12"
         stroke="#3a414a"
         fill="none"
         id="path58"
         sodipodi:nodetypes="cssssccssssc" />
      <path
         d="M746.2 792.5l14.26-4.63v9.27zM1067.88 623.05l-14.26 4.64v-9.28z"
         stroke="#3a414a"
         fill="#3a414a"
         id="path59" />
      <path
         d="m 764.27874,881.60485 h 190.08 c 3.31371,0 6.00738,-2.68631 6,-6 L 960,714.6 c -0.007,-3.3137 2.68629,-6 6,-6 h 87.12 m -134.00367,194.43846 52.07997,-0.0793 c 3.3137,-0.005 6.0081,-2.60704 6,-5.92073 l -0.3587,-82.35884 c -0.01,-3.3137 2.6863,-6 6,-6 h 83.12"
         stroke="#3a414a"
         fill="none"
         id="path60"
         sodipodi:nodetypes="cssssccsccsc" />
      <path
         d="m 748.83685,1062.0423 h 14.08 c 3.3137,0 6.00809,-2.6863 6,-6 l -0.3587,-147.00483 c -0.008,-3.31371 2.6863,-6 6,-6 H 921.6781"
         stroke="#3a414a"
         fill="none"
         id="path60-3"
         sodipodi:nodetypes="cssssc" />
      <path
         d="m 950.77948,913.43846 32.07992,-0.0793 c 3.31369,-0.008 6.0081,-2.60704 6,-5.92073 l -0.3587,-68.35884 c -0.01,-3.3137 2.6863,-6 6,-6 h 71.12"
         stroke="#3a414a"
         fill="none"
         id="path60-8"
         sodipodi:nodetypes="csccsc" />
      <path
         d="m 748.5,1116.4423 h 26.08 c 3.3137,0 6.00622,-2.6863 6,-6 l -0.3587,-191.00483 c -0.006,-3.31371 2.6863,-6 6,-6 h 167.11995"
         stroke="#3a414a"
         fill="none"
         id="path60-3-2"
         sodipodi:nodetypes="cssssc" />
      <path
         d="m 749.51874,882.18779 14.26,-4.63 v 9.27 z M 1067.88,708.6 l -14.26,4.64 v -9.27 z"
         stroke="#3a414a"
         fill="#3a414a"
         id="path61"
         sodipodi:nodetypes="cccccccc" />
      <path
         d="M1286.88 323.95h356.24"
         stroke="#3a414a"
         fill="none"
         id="path62" />
      <path
         d="M1272.12 323.95l14.26-4.63v9.27zM1657.88 323.95l-14.26 4.64v-9.28z"
         stroke="#3a414a"
         fill="#3a414a"
         id="path63" />
      <path
         d="M 1286.88,413.26 H 1414 c 3.3137,0 6,-2.68629 6,-6 v -29.98 c 0,-3.31371 2.6863,-6 6,-6 h 217.12"
         stroke="#3a414a"
         fill="none"
         id="path64"
         sodipodi:nodetypes="cssssc" />
      <path
         d="m 1272.12,413.26 14.26,-4.64 v 9.27 z m 385.76,-41.98 -14.26,4.63 v -9.26 z"
         stroke="#3a414a"
         fill="#3a414a"
         id="path65"
         sodipodi:nodetypes="cccccccc" />
      <path
         d="M1286.88 424.4H1384a6 6 0 0 1 6 6v148.1a6 6 0 0 0 6 6h247.12"
         stroke="#3a414a"
         fill="none"
         id="path66" />
      <path
         d="M1272.12 424.4l14.26-4.63v9.27zM1657.88 584.5l-14.26 4.64v-9.27z"
         stroke="#3a414a"
         fill="#3a414a"
         id="path67" />
      <path
         d="M1286.88 437.9H1364a6 6 0 0 1 6 6v181.74a6 6 0 0 0 6 6h267.12"
         stroke="#3a414a"
         fill="none"
         id="path68" />
      <path
         d="M1272.12 437.9l14.26-4.63v9.27zM1657.88 631.64l-14.26 4.63V627z"
         stroke="#3a414a"
         fill="#3a414a"
         id="path69" />
      <path
         d="M1286.88 533.6H1344a6 6 0 0 1 6 6v98.9a6 6 0 0 0 6 6h287.12"
         stroke="#3a414a"
         fill="none"
         id="path70" />
      <path
         d="M1272.12 533.6l14.26-4.64v9.27zM1657.88 644.5l-14.26 4.64v-9.27z"
         stroke="#3a414a"
         fill="#3a414a"
         id="path71" />
      <path
         d="m 1286.88,635.74 c 2.5516,0 4.62,2.06844 4.62,4.62 v 44.14 c 0,3.31371 2.6863,6 6,6 h 345.62"
         stroke="#3a414a"
         fill="none"
         id="path72"
         sodipodi:nodetypes="csssc" />
      <path
         d="m 1272.12,635.74 14.26,-4.64 v 9.27 z m 385.76,54.76 -14.26,4.64 v -9.27 z"
         stroke="#3a414a"
         fill="#3a414a"
         id="path73"
         sodipodi:nodetypes="cccccccc" />
      <path
         d="M1286.88 623.05H1304a6 6 0 0 1 6 6v22.67a6 6 0 0 0 6 6h327.12"
         stroke="#3a414a"
         fill="none"
         id="path74" />
      <path
         d="M1272.12 623.05l14.26-4.63v9.27zM1657.88 657.72l-14.26 4.64v-9.27z"
         stroke="#3a414a"
         fill="#3a414a"
         id="path75" />
      <path
         d="m 1286.88,704.6 h 357.7"
         stroke="#3a414a"
         fill="none"
         id="path76"
         sodipodi:nodetypes="cc" />
      <path
         d="m 1272.12,704.6 14.26,-4.63 v 9.27 z m 385.5212,0 -14.27,4.64 v -9.27 z m -0.01,11.3325 -14.27,4.64 v -9.27 z"
         stroke="#3a414a"
         fill="#3a414a"
         id="path77"
         sodipodi:nodetypes="cccccccccccc" />
      <path
         d="M 1286.88,523.5 H 1444 c 3.3137,0 6,-2.68629 6,-6 V 389.86 c 0,-3.31371 2.6863,-6 6,-6 h 187.12 m -364.7159,437.10736 h 205.12 c 3.3137,0 6,-2.68629 6,-6 v -355.64 c 0,-3.31371 2.6863,-6 6,-6 h 157.12 M 1278.88,803.05368 H 1472 c 3.3137,0 6,-2.68629 6,-6 v -395.64 c 0,-3.31371 2.6863,-6 6,-6 h 165.12"
         stroke="#3a414a"
         fill="none"
         id="path78"
         sodipodi:nodetypes="cssssccssssccssssc" />
      <path
         d="m 1272.12,523.5 14.26,-4.63 v 9.27 z m 385.76,-139.64 -14.26,4.63 v -9.28 z"
         stroke="#3a414a"
         fill="#3a414a"
         id="path79"
         sodipodi:nodetypes="cccccccc" />
      <path
         d="M845 1080.5a6 6 0 0 1 6-6h188a6 6 0 0 1 6 6v68a6 6 0 0 1-6 6H851a6 6 0 0 1-6-6z"
         stroke="#3a414a"
         fill="#fff"
         id="path80" />
      <use
         xlink:href="#D"
         transform="matrix(1,0,0,1,857,1086.5034375312111) translate(25.22222222222222 31.77777777777778)"
         id="use80" />
      <path
         d="M1105 1120.5a6 6 0 0 1 6-6h188a6 6 0 0 1 6 6v68a6 6 0 0 1-6 6h-188a6 6 0 0 1-6-6z"
         stroke="#3a414a"
         fill="#fff"
         id="path81" />
      <use
         xlink:href="#E"
         transform="matrix(1,0,0,1,1117,1126.5034375312111) translate(31.333333333333336 31.77777777777778)"
         id="use81" />
      <path
         d="M1365 1080.5a6 6 0 0 1 6-6h188a6 6 0 0 1 6 6v68a6 6 0 0 1-6 6h-188a6 6 0 0 1-6-6z"
         stroke="#3a414a"
         fill="#fff"
         id="path82" />
      <use
         xlink:href="#F"
         transform="matrix(1,0,0,1,1377,1086.5034375312111) translate(45.46913580246914 31.77777777777778)"
         id="use82" />
      <path
         d="M766.88 310.76h286.24"
         stroke="#3a414a"
         fill="none"
         id="path83" />
      <path
         d="M752.12 310.76l14.26-4.64v9.27zM1067.88 310.76l-14.26 4.63v-9.28z"
         stroke="#3a414a"
         fill="#3a414a"
         id="path84" />
      <path
         d="M644.08 530v36.62"
         stroke="#3a414a"
         fill="none"
         id="path85" />
      <path
         d="M644.58 530h-1v-.5h1z"
         stroke="#3a414a"
         stroke-width=".05"
         fill="#3a414a"
         id="path86" />
      <path
         d="M644.08 581.4l-4.64-14.28h9.27z"
         stroke="#3a414a"
         fill="#3a414a"
         id="path87" />
      <path
         d="M644.08 472.12v-20.74"
         stroke="#3a414a"
         fill="none"
         id="path88" />
      <path
         d="M644.08 486.88l-4.64-14.26h9.27zM644.08 436.62l4.63 14.26h-9.26z"
         stroke="#3a414a"
         fill="#3a414a"
         id="path89" />
      <path
         d="M544.08 1046a6 6 0 0 1 6-6h188a6 6 0 0 1 6 6v28a6 6 0 0 1-6 6h-188a6 6 0 0 1-6-6z"
         stroke="#3a414a"
         fill="#fff"
         id="path90" />
      <use
         xlink:href="#G"
         transform="matrix(1,0,0,1,556.0758292051661,1052) translate(-0.7962962962962905 17.77777777777778)"
         id="use90" />
      <path
         d="M544.08 1100.5a6 6 0 0 1 6-6h188a6 6 0 0 1 6 6v28a6 6 0 0 1-6 6h-188a6 6 0 0 1-6-6z"
         stroke="#3a414a"
         fill="#fff"
         id="path91" />
      <use
         xlink:href="#H"
         transform="matrix(1,0,0,1,556.0758292051661,1106.5034375312111) translate(59.66666666666667 17.77777777777778)"
         id="use91" />
      <path
         d="m 543.08,1060 h -33.5 c -3.31371,0 -6,-2.6863 -6,-6 V 807.4 c 0,-3.31371 2.68629,-6 6,-6 h 17.6 m 16.10199,309.3553 -70.44989,-0.3587 c -3.31367,-0.017 -6.01535,-2.6863 -6,-6 l 1.43495,-309.73769 c 0.0154,-3.31367 2.68646,-5.96585 6,-6 l 69.61684,-0.71747"
         stroke="#3a414a"
         fill="none"
         id="path92"
         sodipodi:nodetypes="cssssccssssc" />
      <path
         d="M543.58 1060.5h-.52v-1h.52z"
         stroke="#3a414a"
         stroke-width=".05"
         fill="#3a414a"
         id="path93" />
      <path
         d="m 541.96,801.4 -14.27,4.63 v -9.26 z m 1.08341,-13.48319 -14.27,4.63 v -9.26 z m 524.64129,20.45859 -14.27,4.63 v -9.26 z m -0.011,24.78765 -14.27,4.63 v -9.26 z m 590.2195,-437.7653 -14.27,4.63 v -9.26 z m -0.315,57.92049 -14.27,4.63 v -9.26 z"
         stroke="#3a414a"
         fill="#3a414a"
         id="path94"
         inkscape:label="path94"
         sodipodi:nodetypes="cccccccccccccccccccccccc" />
    </g>
    <defs
       id="defs458">
      <path
         fill="#3a414a"
         d="M232-93c-1 65-40 97-104 97C67 4 28-28 28-90v-158h33c8 89-33 224 67 224 102 0 64-133 71-224h33v155"
         id="I" />
      <path
         fill="#3a414a"
         d="M33 0v-248h34V0H33"
         id="J" />
      <g
         id="a">
        <use
           transform="matrix(0.06172839506172839,0,0,0.06172839506172839,0,0)"
           xlink:href="#I"
           id="use94" />
        <use
           transform="matrix(0.06172839506172839,0,0,0.06172839506172839,15.987654320987653,0)"
           xlink:href="#J"
           id="use95" />
      </g>
      <path
         fill="#3a414a"
         d="M30 0v-248h33v221h125V0H30"
         id="K" />
      <path
         fill="#3a414a"
         d="M100-194c62-1 85 37 85 99 1 63-27 99-86 99S16-35 15-95c0-66 28-99 85-99zM99-20c44 1 53-31 53-75 0-43-8-75-51-75s-53 32-53 75 10 74 51 75"
         id="L" />
      <path
         fill="#3a414a"
         d="M177-190C167-65 218 103 67 71c-23-6-38-20-44-43l32-5c15 47 100 32 89-28v-30C133-14 115 1 83 1 29 1 15-40 15-95c0-56 16-97 71-98 29-1 48 16 59 35 1-10 0-23 2-32h30zM94-22c36 0 50-32 50-73 0-42-14-75-50-75-39 0-46 34-46 75s6 73 46 73"
         id="M" />
      <path
         fill="#3a414a"
         d="M24-231v-30h32v30H24zM24 0v-190h32V0H24"
         id="N" />
      <path
         fill="#3a414a"
         d="M96-169c-40 0-48 33-48 73s9 75 48 75c24 0 41-14 43-38l32 2c-6 37-31 61-74 61-59 0-76-41-82-99-10-93 101-131 147-64 4 7 5 14 7 22l-32 3c-4-21-16-35-41-35"
         id="O" />
      <g
         id="b">
        <use
           transform="matrix(0.06172839506172839,0,0,0.06172839506172839,0,0)"
           xlink:href="#K"
           id="use96" />
        <use
           transform="matrix(0.06172839506172839,0,0,0.06172839506172839,12.345679012345679,0)"
           xlink:href="#L"
           id="use97" />
        <use
           transform="matrix(0.06172839506172839,0,0,0.06172839506172839,24.691358024691358,0)"
           xlink:href="#M"
           id="use98" />
        <use
           transform="matrix(0.06172839506172839,0,0,0.06172839506172839,37.03703703703704,0)"
           xlink:href="#N"
           id="use99" />
        <use
           transform="matrix(0.06172839506172839,0,0,0.06172839506172839,41.91358024691358,0)"
           xlink:href="#O"
           id="use100" />
      </g>
      <path
         fill="#3a414a"
         d="M30-248c87 1 191-15 191 75 0 78-77 80-158 76V0H30v-248zm33 125c57 0 124 11 124-50 0-59-68-47-124-48v98"
         id="P" />
      <path
         fill="#3a414a"
         d="M100-194c63 0 86 42 84 106H49c0 40 14 67 53 68 26 1 43-12 49-29l28 8c-11 28-37 45-77 45C44 4 14-33 15-96c1-61 26-98 85-98zm52 81c6-60-76-77-97-28-3 7-6 17-6 28h103"
         id="Q" />
      <path
         fill="#3a414a"
         d="M114-163C36-179 61-72 57 0H25l-1-190h30c1 12-1 29 2 39 6-27 23-49 58-41v29"
         id="R" />
      <path
         fill="#3a414a"
         d="M135-143c-3-34-86-38-87 0 15 53 115 12 119 90S17 21 10-45l28-5c4 36 97 45 98 0-10-56-113-15-118-90-4-57 82-63 122-42 12 7 21 19 24 35"
         id="S" />
      <path
         fill="#3a414a"
         d="M59-47c-2 24 18 29 38 22v24C64 9 27 4 27-40v-127H5v-23h24l9-43h21v43h35v23H59v120"
         id="T" />
      <path
         fill="#3a414a"
         d="M141-36C126-15 110 5 73 4 37 3 15-17 15-53c-1-64 63-63 125-63 3-35-9-54-41-54-24 1-41 7-42 31l-33-3c5-37 33-52 76-52 45 0 72 20 72 64v82c-1 20 7 32 28 27v20c-31 9-61-2-59-35zM48-53c0 20 12 33 32 33 41-3 63-29 60-74-43 2-92-5-92 41"
         id="U" />
      <path
         fill="#3a414a"
         d="M117-194c89-4 53 116 60 194h-32v-121c0-31-8-49-39-48C34-167 62-67 57 0H25l-1-190h30c1 10-1 24 2 32 11-22 29-35 61-36"
         id="V" />
      <g
         id="c">
        <use
           transform="matrix(0.06172839506172839,0,0,0.06172839506172839,0,0)"
           xlink:href="#P"
           id="use101" />
        <use
           transform="matrix(0.06172839506172839,0,0,0.06172839506172839,14.814814814814813,0)"
           xlink:href="#Q"
           id="use102" />
        <use
           transform="matrix(0.06172839506172839,0,0,0.06172839506172839,27.160493827160494,0)"
           xlink:href="#R"
           id="use103" />
        <use
           transform="matrix(0.06172839506172839,0,0,0.06172839506172839,34.50617283950617,0)"
           xlink:href="#S"
           id="use104" />
        <use
           transform="matrix(0.06172839506172839,0,0,0.06172839506172839,45.61728395061728,0)"
           xlink:href="#N"
           id="use105" />
        <use
           transform="matrix(0.06172839506172839,0,0,0.06172839506172839,50.49382716049382,0)"
           xlink:href="#S"
           id="use106" />
        <use
           transform="matrix(0.06172839506172839,0,0,0.06172839506172839,61.60493827160494,0)"
           xlink:href="#T"
           id="use107" />
        <use
           transform="matrix(0.06172839506172839,0,0,0.06172839506172839,67.77777777777777,0)"
           xlink:href="#U"
           id="use108" />
        <use
           transform="matrix(0.06172839506172839,0,0,0.06172839506172839,80.12345679012346,0)"
           xlink:href="#V"
           id="use109" />
        <use
           transform="matrix(0.06172839506172839,0,0,0.06172839506172839,92.46913580246914,0)"
           xlink:href="#O"
           id="use110" />
        <use
           transform="matrix(0.06172839506172839,0,0,0.06172839506172839,103.58024691358025,0)"
           xlink:href="#Q"
           id="use111" />
      </g>
      <path
         fill="#3a414a"
         d="M30-248c118-7 216 8 213 122C240-48 200 0 122 0H30v-248zM63-27c89 8 146-16 146-99s-60-101-146-95v194"
         id="W" />
      <path
         fill="#3a414a"
         d="M210-169c-67 3-38 105-44 169h-31v-121c0-29-5-50-35-48C34-165 62-65 56 0H25l-1-190h30c1 10-1 24 2 32 10-44 99-50 107 0 11-21 27-35 58-36 85-2 47 119 55 194h-31v-121c0-29-5-49-35-48"
         id="X" />
      <g
         id="d">
        <use
           transform="matrix(0.06172839506172839,0,0,0.06172839506172839,0,0)"
           xlink:href="#W"
           id="use112" />
        <use
           transform="matrix(0.06172839506172839,0,0,0.06172839506172839,15.987654320987653,0)"
           xlink:href="#L"
           id="use113" />
        <use
           transform="matrix(0.06172839506172839,0,0,0.06172839506172839,28.333333333333332,0)"
           xlink:href="#X"
           id="use114" />
        <use
           transform="matrix(0.06172839506172839,0,0,0.06172839506172839,46.79012345679012,0)"
           xlink:href="#U"
           id="use115" />
        <use
           transform="matrix(0.06172839506172839,0,0,0.06172839506172839,59.1358024691358,0)"
           xlink:href="#N"
           id="use116" />
        <use
           transform="matrix(0.06172839506172839,0,0,0.06172839506172839,64.01234567901234,0)"
           xlink:href="#V"
           id="use117" />
      </g>
      <path
         fill="#3a414a"
         d="M185-189c-5-48-123-54-124 2 14 75 158 14 163 119 3 78-121 87-175 55-17-10-28-26-33-46l33-7c5 56 141 63 141-1 0-78-155-14-162-118-5-82 145-84 179-34 5 7 8 16 11 25"
         id="Y" />
      <path
         fill="#3a414a"
         d="M115-194c55 1 70 41 70 98S169 2 115 4C84 4 66-9 55-30l1 105H24l-1-265h31l2 30c10-21 28-34 59-34zm-8 174c40 0 45-34 45-75s-6-73-45-74c-42 0-51 32-51 76 0 43 10 73 51 73"
         id="Z" />
      <path
         fill="#3a414a"
         d="M101-234c-31-9-42 10-38 44h38v23H63V0H32v-167H5v-23h27c-7-52 17-82 69-68v24"
         id="aa" />
      <g
         id="e">
        <use
           transform="matrix(0.06172839506172839,0,0,0.06172839506172839,0,0)"
           xlink:href="#Y"
           id="use118" />
        <use
           transform="matrix(0.06172839506172839,0,0,0.06172839506172839,14.814814814814813,0)"
           xlink:href="#Z"
           id="use119" />
        <use
           transform="matrix(0.06172839506172839,0,0,0.06172839506172839,27.160493827160494,0)"
           xlink:href="#Q"
           id="use120" />
        <use
           transform="matrix(0.06172839506172839,0,0,0.06172839506172839,39.50617283950617,0)"
           xlink:href="#O"
           id="use121" />
        <use
           transform="matrix(0.06172839506172839,0,0,0.06172839506172839,50.61728395061728,0)"
           xlink:href="#N"
           id="use122" />
        <use
           transform="matrix(0.06172839506172839,0,0,0.06172839506172839,55.49382716049382,0)"
           xlink:href="#aa"
           id="use123" />
        <use
           transform="matrix(0.06172839506172839,0,0,0.06172839506172839,61.666666666666664,0)"
           xlink:href="#N"
           id="use124" />
        <use
           transform="matrix(0.06172839506172839,0,0,0.06172839506172839,66.5432098765432,0)"
           xlink:href="#O"
           id="use125" />
      </g>
      <path
         fill="#3a414a"
         d="M140-251c81 0 123 46 123 126C263-46 219 4 140 4 59 4 17-45 17-125s42-126 123-126zm0 227c63 0 89-41 89-101s-29-99-89-99c-61 0-89 39-89 99S79-25 140-24"
         id="ab" />
      <path
         fill="#3a414a"
         d="M115-194c53 0 69 39 70 98 0 66-23 100-70 100C84 3 66-7 56-30L54 0H23l1-261h32v101c10-23 28-34 59-34zm-8 174c40 0 45-34 45-75 0-40-5-75-45-74-42 0-51 32-51 76 0 43 10 73 51 73"
         id="ac" />
      <path
         fill="#3a414a"
         d="M24-231v-30h32v30H24zM-9 49c24 4 33-6 33-30v-209h32V24c2 40-23 58-65 49V49"
         id="ad" />
      <g
         id="f">
        <use
           transform="matrix(0.06172839506172839,0,0,0.06172839506172839,0,0)"
           xlink:href="#ab"
           id="use126" />
        <use
           transform="matrix(0.06172839506172839,0,0,0.06172839506172839,17.28395061728395,0)"
           xlink:href="#ac"
           id="use127" />
        <use
           transform="matrix(0.06172839506172839,0,0,0.06172839506172839,29.629629629629626,0)"
           xlink:href="#ad"
           id="use128" />
        <use
           transform="matrix(0.06172839506172839,0,0,0.06172839506172839,34.50617283950617,0)"
           xlink:href="#Q"
           id="use129" />
        <use
           transform="matrix(0.06172839506172839,0,0,0.06172839506172839,46.85185185185185,0)"
           xlink:href="#O"
           id="use130" />
        <use
           transform="matrix(0.06172839506172839,0,0,0.06172839506172839,57.96296296296296,0)"
           xlink:href="#T"
           id="use131" />
        <use
           transform="matrix(0.06172839506172839,0,0,0.06172839506172839,64.1358024691358,0)"
           xlink:href="#S"
           id="use132" />
      </g>
      <path
         fill="#3a414a"
         d="M140-251c80 0 125 45 125 126 0 70-33 111-92 124 6 28 34 38 68 31l-1 36C177 83 129 55 120 2 51-6 15-50 15-125c0-81 44-126 125-126zm-1 214c52 0 73-35 73-88 0-50-21-86-72-86-52 0-73 35-73 86s22 88 72 88"
         id="ae" />
      <path
         fill="#3a414a"
         d="M85 4C-2 5 27-109 22-190h50c7 57-23 150 33 157 60-5 35-97 40-157h50l1 190h-47c-2-12 1-28-3-38-12 25-28 42-61 42"
         id="af" />
      <path
         fill="#3a414a"
         d="M25-224v-37h50v37H25zM25 0v-190h50V0H25"
         id="ag" />
      <path
         fill="#3a414a"
         d="M12 0v-35l95-120H19v-35h142v35L67-36h103V0H12"
         id="ah" />
      <path
         fill="#3a414a"
         d="M169-182c-1-43-94-46-97-3 18 66 151 10 154 114 3 95-165 93-204 36-6-8-10-19-12-30l50-8c3 46 112 56 116 5-17-69-150-10-154-114-4-87 153-88 188-35 5 8 8 18 10 28"
         id="ai" />
      <path
         fill="#3a414a"
         d="M25 0v-261h50V0H25"
         id="aj" />
      <path
         fill="#3a414a"
         d="M88-194c31-1 46 15 58 34l-1-101h50l1 261h-48c-2-10 0-23-3-31C134-8 116 4 84 4 32 4 16-41 15-95c0-56 19-97 73-99zm17 164c33 0 40-30 41-66 1-37-9-64-41-64s-38 30-39 65c0 43 13 65 39 65"
         id="ak" />
      <path
         fill="#3a414a"
         d="M185-48c-13 30-37 53-82 52C43 2 14-33 14-96s30-98 90-98c62 0 83 45 84 108H66c0 31 8 55 39 56 18 0 30-7 34-22zm-45-69c5-46-57-63-70-21-2 6-4 13-4 21h74"
         id="al" />
      <path
         fill="#3a414a"
         d="M275 0h-61l-44-196L126 0H64L0-248h53L97-49l45-199h58l43 199 44-199h52"
         id="am" />
      <path
         fill="#3a414a"
         d="M195-6C206 82 75 100 31 46c-4-6-6-13-8-21l49-6c3 16 16 24 34 25 40 0 42-37 40-79-11 22-30 35-61 35-53 0-70-43-70-97 0-56 18-96 73-97 30 0 46 14 59 34l2-30h47zm-90-29c32 0 41-27 41-63 0-35-9-62-40-62-32 0-39 29-40 63 0 36 9 62 39 62"
         id="an" />
      <path
         fill="#3a414a"
         d="M115-3C79 11 28 4 28-45v-112H4v-33h27l15-45h31v45h36v33H77v99c-1 23 16 31 38 25v30"
         id="ao" />
      <path
         fill="#3a414a"
         d="M137-138c1-29-70-34-71-4 15 46 118 7 119 86 1 83-164 76-172 9l43-7c4 19 20 25 44 25 33 8 57-30 24-41C81-84 22-81 20-136c-2-80 154-74 161-7"
         id="ap" />
      <g
         id="g">
        <use
           transform="matrix(0.06172839506172839,0,0,0.06172839506172839,0,0)"
           xlink:href="#ae"
           id="use133" />
        <use
           transform="matrix(0.06172839506172839,0,0,0.06172839506172839,17.28395061728395,0)"
           xlink:href="#af"
           id="use134" />
        <use
           transform="matrix(0.06172839506172839,0,0,0.06172839506172839,30.80246913580247,0)"
           xlink:href="#ag"
           id="use135" />
        <use
           transform="matrix(0.06172839506172839,0,0,0.06172839506172839,36.97530864197531,0)"
           xlink:href="#ah"
           id="use136" />
        <use
           transform="matrix(0.06172839506172839,0,0,0.06172839506172839,48.08641975308642,0)"
           xlink:href="#ai"
           id="use137" />
        <use
           transform="matrix(0.06172839506172839,0,0,0.06172839506172839,62.90123456790123,0)"
           xlink:href="#aj"
           id="use138" />
        <use
           transform="matrix(0.06172839506172839,0,0,0.06172839506172839,69.07407407407406,0)"
           xlink:href="#ag"
           id="use139" />
        <use
           transform="matrix(0.06172839506172839,0,0,0.06172839506172839,75.2469135802469,0)"
           xlink:href="#ak"
           id="use140" />
        <use
           transform="matrix(0.06172839506172839,0,0,0.06172839506172839,88.76543209876542,0)"
           xlink:href="#al"
           id="use141" />
        <use
           transform="matrix(0.06172839506172839,0,0,0.06172839506172839,101.1111111111111,0)"
           xlink:href="#am"
           id="use142" />
        <use
           transform="matrix(0.06172839506172839,0,0,0.06172839506172839,121.85185185185183,0)"
           xlink:href="#ag"
           id="use143" />
        <use
           transform="matrix(0.06172839506172839,0,0,0.06172839506172839,128.02469135802468,0)"
           xlink:href="#ak"
           id="use144" />
        <use
           transform="matrix(0.06172839506172839,0,0,0.06172839506172839,141.5432098765432,0)"
           xlink:href="#an"
           id="use145" />
        <use
           transform="matrix(0.06172839506172839,0,0,0.06172839506172839,155.0617283950617,0)"
           xlink:href="#al"
           id="use146" />
        <use
           transform="matrix(0.06172839506172839,0,0,0.06172839506172839,167.40740740740736,0)"
           xlink:href="#ao"
           id="use147" />
        <use
           transform="matrix(0.06172839506172839,0,0,0.06172839506172839,174.75308641975303,0)"
           xlink:href="#ap"
           id="use148" />
      </g>
      <path
         fill="#3a414a"
         d="M24 0v-261h32V0H24"
         id="aq" />
      <path
         fill="#3a414a"
         d="M127-220V0H93v-220H8v-28h204v28h-85"
         id="ar" />
      <path
         fill="#3a414a"
         d="M141 0L90-78 38 0H4l68-98-65-92h35l48 74 47-74h35l-64 92 68 98h-35"
         id="as" />
      <g
         id="h">
        <use
           transform="matrix(0.06172839506172839,0,0,0.06172839506172839,0,0)"
           xlink:href="#P"
           id="use149" />
        <use
           transform="matrix(0.06172839506172839,0,0,0.06172839506172839,14.814814814814813,0)"
           xlink:href="#aq"
           id="use150" />
        <use
           transform="matrix(0.06172839506172839,0,0,0.06172839506172839,19.691358024691354,0)"
           xlink:href="#U"
           id="use151" />
        <use
           transform="matrix(0.06172839506172839,0,0,0.06172839506172839,32.03703703703703,0)"
           xlink:href="#N"
           id="use152" />
        <use
           transform="matrix(0.06172839506172839,0,0,0.06172839506172839,36.913580246913575,0)"
           xlink:href="#V"
           id="use153" />
        <use
           transform="matrix(0.06172839506172839,0,0,0.06172839506172839,49.25925925925925,0)"
           xlink:href="#ar"
           id="use154" />
        <use
           transform="matrix(0.06172839506172839,0,0,0.06172839506172839,60.30864197530864,0)"
           xlink:href="#Q"
           id="use155" />
        <use
           transform="matrix(0.06172839506172839,0,0,0.06172839506172839,72.65432098765432,0)"
           xlink:href="#as"
           id="use156" />
        <use
           transform="matrix(0.06172839506172839,0,0,0.06172839506172839,83.76543209876543,0)"
           xlink:href="#T"
           id="use157" />
      </g>
      <path
         fill="#3a414a"
         d="M240 0l2-218c-23 76-54 145-80 218h-23L58-218 59 0H30v-248h44l77 211c21-75 51-140 76-211h43V0h-30"
         id="at" />
      <path
         fill="#3a414a"
         d="M84 4C-5 8 30-112 23-190h32v120c0 31 7 50 39 49 72-2 45-101 50-169h31l1 190h-30c-1-10 1-25-2-33-11 22-28 36-60 37"
         id="au" />
      <path
         fill="#3a414a"
         d="M16-82v-28h88v28H16"
         id="av" />
      <g
         id="i">
        <use
           transform="matrix(0.06172839506172839,0,0,0.06172839506172839,0,0)"
           xlink:href="#at"
           id="use158" />
        <use
           transform="matrix(0.06172839506172839,0,0,0.06172839506172839,18.456790123456788,0)"
           xlink:href="#au"
           id="use159" />
        <use
           transform="matrix(0.06172839506172839,0,0,0.06172839506172839,30.80246913580247,0)"
           xlink:href="#aq"
           id="use160" />
        <use
           transform="matrix(0.06172839506172839,0,0,0.06172839506172839,35.67901234567901,0)"
           xlink:href="#T"
           id="use161" />
        <use
           transform="matrix(0.06172839506172839,0,0,0.06172839506172839,41.851851851851855,0)"
           xlink:href="#N"
           id="use162" />
        <use
           transform="matrix(0.06172839506172839,0,0,0.06172839506172839,46.7283950617284,0)"
           xlink:href="#Z"
           id="use163" />
        <use
           transform="matrix(0.06172839506172839,0,0,0.06172839506172839,59.074074074074076,0)"
           xlink:href="#aq"
           id="use164" />
        <use
           transform="matrix(0.06172839506172839,0,0,0.06172839506172839,63.95061728395061,0)"
           xlink:href="#Q"
           id="use165" />
        <use
           transform="matrix(0.06172839506172839,0,0,0.06172839506172839,76.2962962962963,0)"
           xlink:href="#av"
           id="use166" />
        <use
           transform="matrix(0.06172839506172839,0,0,0.06172839506172839,83.64197530864199,0)"
           xlink:href="#S"
           id="use167" />
        <use
           transform="matrix(0.06172839506172839,0,0,0.06172839506172839,94.7530864197531,0)"
           xlink:href="#Q"
           id="use168" />
        <use
           transform="matrix(0.06172839506172839,0,0,0.06172839506172839,107.09876543209879,0)"
           xlink:href="#aq"
           id="use169" />
        <use
           transform="matrix(0.06172839506172839,0,0,0.06172839506172839,111.97530864197533,0)"
           xlink:href="#Q"
           id="use170" />
        <use
           transform="matrix(0.06172839506172839,0,0,0.06172839506172839,124.32098765432102,0)"
           xlink:href="#O"
           id="use171" />
        <use
           transform="matrix(0.06172839506172839,0,0,0.06172839506172839,135.43209876543213,0)"
           xlink:href="#T"
           id="use172" />
      </g>
      <path
         fill="#3a414a"
         d="M212-179c-10-28-35-45-73-45-59 0-87 40-87 99 0 60 29 101 89 101 43 0 62-24 78-52l27 14C228-24 195 4 139 4 59 4 22-46 18-125c-6-104 99-153 187-111 19 9 31 26 39 46"
         id="aw" />
      <path
         fill="#3a414a"
         d="M85-194c31 0 48 13 60 33l-1-100h32l1 261h-30c-2-10 0-23-3-31C134-8 116 4 85 4 32 4 16-35 15-94c0-66 23-100 70-100zm9 24c-40 0-46 34-46 75 0 40 6 74 45 74 42 0 51-32 51-76 0-42-9-74-50-73"
         id="ax" />
      <path
         fill="#3a414a"
         d="M30 0v-248h187v28H63v79h144v27H63v87h162V0H30"
         id="ay" />
      <g
         id="j">
        <use
           transform="matrix(0.06172839506172839,0,0,0.06172839506172839,0,0)"
           xlink:href="#aw"
           id="use173" />
        <use
           transform="matrix(0.06172839506172839,0,0,0.06172839506172839,15.987654320987653,0)"
           xlink:href="#L"
           id="use174" />
        <use
           transform="matrix(0.06172839506172839,0,0,0.06172839506172839,28.333333333333332,0)"
           xlink:href="#ax"
           id="use175" />
        <use
           transform="matrix(0.06172839506172839,0,0,0.06172839506172839,40.67901234567901,0)"
           xlink:href="#Q"
           id="use176" />
        <use
           transform="matrix(0.06172839506172839,0,0,0.06172839506172839,53.02469135802469,0)"
           xlink:href="#ay"
           id="use177" />
        <use
           transform="matrix(0.06172839506172839,0,0,0.06172839506172839,67.8395061728395,0)"
           xlink:href="#ax"
           id="use178" />
        <use
           transform="matrix(0.06172839506172839,0,0,0.06172839506172839,80.18518518518519,0)"
           xlink:href="#N"
           id="use179" />
        <use
           transform="matrix(0.06172839506172839,0,0,0.06172839506172839,85.06172839506173,0)"
           xlink:href="#T"
           id="use180" />
        <use
           transform="matrix(0.06172839506172839,0,0,0.06172839506172839,91.23456790123457,0)"
           xlink:href="#L"
           id="use181" />
        <use
           transform="matrix(0.06172839506172839,0,0,0.06172839506172839,103.58024691358025,0)"
           xlink:href="#R"
           id="use182" />
      </g>
      <path
         fill="#3a414a"
         d="M67-125c0 53 21 87 73 88 37 1 54-22 65-47l45 17C233-25 199 4 140 4 58 4 20-42 15-125 8-235 124-281 211-232c18 10 29 29 36 50l-46 12c-8-25-30-41-62-41-52 0-71 34-72 86"
         id="az" />
      <path
         fill="#3a414a"
         d="M110-194c64 0 96 36 96 99 0 64-35 99-97 99-61 0-95-36-95-99 0-62 34-99 96-99zm-1 164c35 0 45-28 45-65 0-40-10-65-43-65-34 0-45 26-45 65 0 36 10 65 43 65"
         id="aA" />
      <path
         fill="#3a414a"
         d="M135-150c-39-12-60 13-60 57V0H25l-1-190h47c2 13-1 29 3 40 6-28 27-53 61-41v41"
         id="aB" />
      <path
         fill="#3a414a"
         d="M147 0H94L2-248h55l64 206c17-72 42-137 63-206h54"
         id="aC" />
      <path
         fill="#3a414a"
         d="M231 0h-52l-39-155L100 0H48L-1-190h46L77-45c9-52 24-97 36-145h53l37 145 32-145h46"
         id="aD" />
      <g
         id="k">
        <use
           transform="matrix(0.06172839506172839,0,0,0.06172839506172839,0,0)"
           xlink:href="#az"
           id="use183" />
        <use
           transform="matrix(0.06172839506172839,0,0,0.06172839506172839,15.987654320987653,0)"
           xlink:href="#aA"
           id="use184" />
        <use
           transform="matrix(0.06172839506172839,0,0,0.06172839506172839,29.50617283950617,0)"
           xlink:href="#af"
           id="use185" />
        <use
           transform="matrix(0.06172839506172839,0,0,0.06172839506172839,43.02469135802469,0)"
           xlink:href="#aB"
           id="use186" />
        <use
           transform="matrix(0.06172839506172839,0,0,0.06172839506172839,51.666666666666664,0)"
           xlink:href="#ap"
           id="use187" />
        <use
           transform="matrix(0.06172839506172839,0,0,0.06172839506172839,64.01234567901234,0)"
           xlink:href="#al"
           id="use188" />
        <use
           transform="matrix(0.06172839506172839,0,0,0.06172839506172839,76.35802469135803,0)"
           xlink:href="#aC"
           id="use189" />
        <use
           transform="matrix(0.06172839506172839,0,0,0.06172839506172839,90.74074074074073,0)"
           xlink:href="#ag"
           id="use190" />
        <use
           transform="matrix(0.06172839506172839,0,0,0.06172839506172839,96.91358024691357,0)"
           xlink:href="#al"
           id="use191" />
        <use
           transform="matrix(0.06172839506172839,0,0,0.06172839506172839,109.25925925925925,0)"
           xlink:href="#aD"
           id="use192" />
      </g>
      <path
         fill="#3a414a"
         d="M24 0v-248h52v208h133V0H24"
         id="aE" />
      <path
         fill="#3a414a"
         d="M135-194c87-1 58 113 63 194h-50c-7-57 23-157-34-157-59 0-34 97-39 157H25l-1-190h47c2 12-1 28 3 38 12-26 28-41 61-42"
         id="aF" />
      <g
         id="l">
        <use
           transform="matrix(0.06172839506172839,0,0,0.06172839506172839,0,0)"
           xlink:href="#aE"
           id="use193" />
        <use
           transform="matrix(0.06172839506172839,0,0,0.06172839506172839,13.518518518518517,0)"
           xlink:href="#aA"
           id="use194" />
        <use
           transform="matrix(0.06172839506172839,0,0,0.06172839506172839,27.037037037037035,0)"
           xlink:href="#an"
           id="use195" />
        <use
           transform="matrix(0.06172839506172839,0,0,0.06172839506172839,40.55555555555555,0)"
           xlink:href="#ag"
           id="use196" />
        <use
           transform="matrix(0.06172839506172839,0,0,0.06172839506172839,46.72839506172839,0)"
           xlink:href="#aF"
           id="use197" />
        <use
           transform="matrix(0.06172839506172839,0,0,0.06172839506172839,60.24691358024691,0)"
           xlink:href="#aC"
           id="use198" />
        <use
           transform="matrix(0.06172839506172839,0,0,0.06172839506172839,74.62962962962962,0)"
           xlink:href="#ag"
           id="use199" />
        <use
           transform="matrix(0.06172839506172839,0,0,0.06172839506172839,80.80246913580245,0)"
           xlink:href="#al"
           id="use200" />
        <use
           transform="matrix(0.06172839506172839,0,0,0.06172839506172839,93.14814814814814,0)"
           xlink:href="#aD"
           id="use201" />
      </g>
      <path
         fill="#3a414a"
         d="M135-194c53 0 70 44 70 98 0 56-19 98-73 100-31 1-45-17-59-34 3 33 2 69 2 105H25l-1-265h48c2 10 0 23 3 31 11-24 29-35 60-35zM114-30c33 0 39-31 40-66 0-38-9-64-40-64-56 0-55 130 0 130"
         id="aG" />
      <g
         id="m">
        <use
           transform="matrix(0.06172839506172839,0,0,0.06172839506172839,0,0)"
           xlink:href="#ai"
           id="use202" />
        <use
           transform="matrix(0.06172839506172839,0,0,0.06172839506172839,14.814814814814813,0)"
           xlink:href="#ag"
           id="use203" />
        <use
           transform="matrix(0.06172839506172839,0,0,0.06172839506172839,20.98765432098765,0)"
           xlink:href="#an"
           id="use204" />
        <use
           transform="matrix(0.06172839506172839,0,0,0.06172839506172839,34.50617283950617,0)"
           xlink:href="#aF"
           id="use205" />
        <use
           transform="matrix(0.06172839506172839,0,0,0.06172839506172839,48.02469135802469,0)"
           xlink:href="#af"
           id="use206" />
        <use
           transform="matrix(0.06172839506172839,0,0,0.06172839506172839,61.54320987654321,0)"
           xlink:href="#aG"
           id="use207" />
        <use
           transform="matrix(0.06172839506172839,0,0,0.06172839506172839,75.06172839506172,0)"
           xlink:href="#aC"
           id="use208" />
        <use
           transform="matrix(0.06172839506172839,0,0,0.06172839506172839,89.44444444444443,0)"
           xlink:href="#ag"
           id="use209" />
        <use
           transform="matrix(0.06172839506172839,0,0,0.06172839506172839,95.61728395061726,0)"
           xlink:href="#al"
           id="use210" />
        <use
           transform="matrix(0.06172839506172839,0,0,0.06172839506172839,107.96296296296295,0)"
           xlink:href="#aD"
           id="use211" />
      </g>
      <g
         id="n">
        <use
           transform="matrix(0.06172839506172839,0,0,0.06172839506172839,0,0)"
           xlink:href="#az"
           id="use212" />
        <use
           transform="matrix(0.06172839506172839,0,0,0.06172839506172839,15.987654320987653,0)"
           xlink:href="#aA"
           id="use213" />
        <use
           transform="matrix(0.06172839506172839,0,0,0.06172839506172839,29.50617283950617,0)"
           xlink:href="#af"
           id="use214" />
        <use
           transform="matrix(0.06172839506172839,0,0,0.06172839506172839,43.02469135802469,0)"
           xlink:href="#aB"
           id="use215" />
        <use
           transform="matrix(0.06172839506172839,0,0,0.06172839506172839,51.666666666666664,0)"
           xlink:href="#ap"
           id="use216" />
        <use
           transform="matrix(0.06172839506172839,0,0,0.06172839506172839,64.01234567901234,0)"
           xlink:href="#al"
           id="use217" />
        <use
           transform="matrix(0.06172839506172839,0,0,0.06172839506172839,76.35802469135803,0)"
           xlink:href="#aE"
           id="use218" />
        <use
           transform="matrix(0.06172839506172839,0,0,0.06172839506172839,89.87654320987654,0)"
           xlink:href="#ag"
           id="use219" />
        <use
           transform="matrix(0.06172839506172839,0,0,0.06172839506172839,96.04938271604938,0)"
           xlink:href="#ap"
           id="use220" />
        <use
           transform="matrix(0.06172839506172839,0,0,0.06172839506172839,108.39506172839506,0)"
           xlink:href="#ao"
           id="use221" />
        <use
           transform="matrix(0.06172839506172839,0,0,0.06172839506172839,115.74074074074075,0)"
           xlink:href="#am"
           id="use222" />
        <use
           transform="matrix(0.06172839506172839,0,0,0.06172839506172839,136.48148148148147,0)"
           xlink:href="#ag"
           id="use223" />
        <use
           transform="matrix(0.06172839506172839,0,0,0.06172839506172839,142.6543209876543,0)"
           xlink:href="#ak"
           id="use224" />
        <use
           transform="matrix(0.06172839506172839,0,0,0.06172839506172839,156.1728395061728,0)"
           xlink:href="#an"
           id="use225" />
        <use
           transform="matrix(0.06172839506172839,0,0,0.06172839506172839,169.6913580246913,0)"
           xlink:href="#al"
           id="use226" />
        <use
           transform="matrix(0.06172839506172839,0,0,0.06172839506172839,182.03703703703698,0)"
           xlink:href="#ao"
           id="use227" />
      </g>
      <path
         fill="#3a414a"
         d="M114-157C55-157 80-60 75 0H25v-261h50l-1 109c12-26 28-41 61-42 86-1 58 113 63 194h-50c-7-57 23-157-34-157"
         id="aH" />
      <path
         fill="#3a414a"
         d="M133-34C117-15 103 5 69 4 32 3 11-16 11-54c-1-60 55-63 116-61 1-26-3-47-28-47-18 1-26 9-28 27l-52-2c7-38 36-58 82-57s74 22 75 68l1 82c-1 14 12 18 25 15v27c-30 8-71 5-69-32zm-48 3c29 0 43-24 42-57-32 0-66-3-65 30 0 17 8 27 23 27"
         id="aI" />
      <g
         id="o">
        <use
           transform="matrix(0.06172839506172839,0,0,0.06172839506172839,0,0)"
           xlink:href="#ai"
           id="use228" />
        <use
           transform="matrix(0.06172839506172839,0,0,0.06172839506172839,14.814814814814813,0)"
           xlink:href="#aj"
           id="use229" />
        <use
           transform="matrix(0.06172839506172839,0,0,0.06172839506172839,20.98765432098765,0)"
           xlink:href="#ag"
           id="use230" />
        <use
           transform="matrix(0.06172839506172839,0,0,0.06172839506172839,27.16049382716049,0)"
           xlink:href="#ak"
           id="use231" />
        <use
           transform="matrix(0.06172839506172839,0,0,0.06172839506172839,40.679012345679006,0)"
           xlink:href="#al"
           id="use232" />
        <use
           transform="matrix(0.06172839506172839,0,0,0.06172839506172839,53.02469135802468,0)"
           xlink:href="#ai"
           id="use233" />
        <use
           transform="matrix(0.06172839506172839,0,0,0.06172839506172839,67.83950617283949,0)"
           xlink:href="#aH"
           id="use234" />
        <use
           transform="matrix(0.06172839506172839,0,0,0.06172839506172839,81.35802469135801,0)"
           xlink:href="#aA"
           id="use235" />
        <use
           transform="matrix(0.06172839506172839,0,0,0.06172839506172839,94.87654320987653,0)"
           xlink:href="#aD"
           id="use236" />
        <use
           transform="matrix(0.06172839506172839,0,0,0.06172839506172839,112.16049382716048,0)"
           xlink:href="#am"
           id="use237" />
        <use
           transform="matrix(0.06172839506172839,0,0,0.06172839506172839,132.6543209876543,0)"
           xlink:href="#aB"
           id="use238" />
        <use
           transform="matrix(0.06172839506172839,0,0,0.06172839506172839,141.29629629629628,0)"
           xlink:href="#aI"
           id="use239" />
        <use
           transform="matrix(0.06172839506172839,0,0,0.06172839506172839,153.64197530864195,0)"
           xlink:href="#aG"
           id="use240" />
        <use
           transform="matrix(0.06172839506172839,0,0,0.06172839506172839,167.16049382716045,0)"
           xlink:href="#aG"
           id="use241" />
        <use
           transform="matrix(0.06172839506172839,0,0,0.06172839506172839,180.67901234567896,0)"
           xlink:href="#al"
           id="use242" />
        <use
           transform="matrix(0.06172839506172839,0,0,0.06172839506172839,193.02469135802463,0)"
           xlink:href="#aB"
           id="use243" />
      </g>
      <path
         fill="#3a414a"
         d="M199 0l-22-63H83L61 0H9l90-248h61L250 0h-51zm-33-102l-36-108c-10 38-24 72-36 108h72"
         id="aJ" />
      <path
         fill="#3a414a"
         d="M190-63c-7 42-38 67-86 67-59 0-84-38-90-98-12-110 154-137 174-36l-49 2c-2-19-15-32-35-32-30 0-35 28-38 64-6 74 65 87 74 30"
         id="aK" />
      <g
         id="p">
        <use
           transform="matrix(0.06172839506172839,0,0,0.06172839506172839,0,0)"
           xlink:href="#aJ"
           id="use244" />
        <use
           transform="matrix(0.06172839506172839,0,0,0.06172839506172839,15.987654320987653,0)"
           xlink:href="#aK"
           id="use245" />
        <use
           transform="matrix(0.06172839506172839,0,0,0.06172839506172839,28.333333333333332,0)"
           xlink:href="#aK"
           id="use246" />
        <use
           transform="matrix(0.06172839506172839,0,0,0.06172839506172839,40.67901234567901,0)"
           xlink:href="#aA"
           id="use247" />
        <use
           transform="matrix(0.06172839506172839,0,0,0.06172839506172839,54.19753086419753,0)"
           xlink:href="#af"
           id="use248" />
        <use
           transform="matrix(0.06172839506172839,0,0,0.06172839506172839,67.71604938271605,0)"
           xlink:href="#aF"
           id="use249" />
        <use
           transform="matrix(0.06172839506172839,0,0,0.06172839506172839,81.23456790123457,0)"
           xlink:href="#ao"
           id="use250" />
        <use
           transform="matrix(0.06172839506172839,0,0,0.06172839506172839,88.58024691358025,0)"
           xlink:href="#ai"
           id="use251" />
        <use
           transform="matrix(0.06172839506172839,0,0,0.06172839506172839,103.39506172839506,0)"
           xlink:href="#al"
           id="use252" />
        <use
           transform="matrix(0.06172839506172839,0,0,0.06172839506172839,115.74074074074075,0)"
           xlink:href="#ao"
           id="use253" />
        <use
           transform="matrix(0.06172839506172839,0,0,0.06172839506172839,123.08641975308643,0)"
           xlink:href="#ao"
           id="use254" />
        <use
           transform="matrix(0.06172839506172839,0,0,0.06172839506172839,130.4320987654321,0)"
           xlink:href="#ag"
           id="use255" />
        <use
           transform="matrix(0.06172839506172839,0,0,0.06172839506172839,136.60493827160494,0)"
           xlink:href="#aF"
           id="use256" />
        <use
           transform="matrix(0.06172839506172839,0,0,0.06172839506172839,150.12345679012344,0)"
           xlink:href="#an"
           id="use257" />
        <use
           transform="matrix(0.06172839506172839,0,0,0.06172839506172839,163.64197530864195,0)"
           xlink:href="#ap"
           id="use258" />
      </g>
      <path
         fill="#3a414a"
         d="M186 0v-106H76V0H24v-248h52v99h110v-99h50V0h-50"
         id="aL" />
      <g
         id="q">
        <use
           transform="matrix(0.06172839506172839,0,0,0.06172839506172839,0,0)"
           xlink:href="#aJ"
           id="use259" />
        <use
           transform="matrix(0.06172839506172839,0,0,0.06172839506172839,15.987654320987653,0)"
           xlink:href="#aK"
           id="use260" />
        <use
           transform="matrix(0.06172839506172839,0,0,0.06172839506172839,28.333333333333332,0)"
           xlink:href="#aK"
           id="use261" />
        <use
           transform="matrix(0.06172839506172839,0,0,0.06172839506172839,40.67901234567901,0)"
           xlink:href="#aA"
           id="use262" />
        <use
           transform="matrix(0.06172839506172839,0,0,0.06172839506172839,54.19753086419753,0)"
           xlink:href="#af"
           id="use263" />
        <use
           transform="matrix(0.06172839506172839,0,0,0.06172839506172839,67.71604938271605,0)"
           xlink:href="#aF"
           id="use264" />
        <use
           transform="matrix(0.06172839506172839,0,0,0.06172839506172839,81.23456790123457,0)"
           xlink:href="#ao"
           id="use265" />
        <use
           transform="matrix(0.06172839506172839,0,0,0.06172839506172839,88.58024691358025,0)"
           xlink:href="#aL"
           id="use266" />
        <use
           transform="matrix(0.06172839506172839,0,0,0.06172839506172839,104.56790123456791,0)"
           xlink:href="#aI"
           id="use267" />
        <use
           transform="matrix(0.06172839506172839,0,0,0.06172839506172839,116.9135802469136,0)"
           xlink:href="#aF"
           id="use268" />
        <use
           transform="matrix(0.06172839506172839,0,0,0.06172839506172839,130.4320987654321,0)"
           xlink:href="#ak"
           id="use269" />
        <use
           transform="matrix(0.06172839506172839,0,0,0.06172839506172839,143.9506172839506,0)"
           xlink:href="#aj"
           id="use270" />
        <use
           transform="matrix(0.06172839506172839,0,0,0.06172839506172839,150.12345679012344,0)"
           xlink:href="#al"
           id="use271" />
        <use
           transform="matrix(0.06172839506172839,0,0,0.06172839506172839,162.4691358024691,0)"
           xlink:href="#aB"
           id="use272" />
      </g>
      <g
         id="r">
        <use
           transform="matrix(0.06172839506172839,0,0,0.06172839506172839,0,0)"
           xlink:href="#az"
           id="use273" />
        <use
           transform="matrix(0.06172839506172839,0,0,0.06172839506172839,15.987654320987653,0)"
           xlink:href="#aH"
           id="use274" />
        <use
           transform="matrix(0.06172839506172839,0,0,0.06172839506172839,29.50617283950617,0)"
           xlink:href="#aI"
           id="use275" />
        <use
           transform="matrix(0.06172839506172839,0,0,0.06172839506172839,41.85185185185185,0)"
           xlink:href="#aG"
           id="use276" />
        <use
           transform="matrix(0.06172839506172839,0,0,0.06172839506172839,55.37037037037037,0)"
           xlink:href="#ao"
           id="use277" />
        <use
           transform="matrix(0.06172839506172839,0,0,0.06172839506172839,62.716049382716044,0)"
           xlink:href="#al"
           id="use278" />
        <use
           transform="matrix(0.06172839506172839,0,0,0.06172839506172839,75.06172839506172,0)"
           xlink:href="#aB"
           id="use279" />
        <use
           transform="matrix(0.06172839506172839,0,0,0.06172839506172839,83.7037037037037,0)"
           xlink:href="#aL"
           id="use280" />
        <use
           transform="matrix(0.06172839506172839,0,0,0.06172839506172839,99.69135802469135,0)"
           xlink:href="#aI"
           id="use281" />
        <use
           transform="matrix(0.06172839506172839,0,0,0.06172839506172839,112.03703703703704,0)"
           xlink:href="#aF"
           id="use282" />
        <use
           transform="matrix(0.06172839506172839,0,0,0.06172839506172839,125.55555555555556,0)"
           xlink:href="#ak"
           id="use283" />
        <use
           transform="matrix(0.06172839506172839,0,0,0.06172839506172839,139.07407407407408,0)"
           xlink:href="#aj"
           id="use284" />
        <use
           transform="matrix(0.06172839506172839,0,0,0.06172839506172839,145.2469135802469,0)"
           xlink:href="#al"
           id="use285" />
        <use
           transform="matrix(0.06172839506172839,0,0,0.06172839506172839,157.59259259259258,0)"
           xlink:href="#aB"
           id="use286" />
      </g>
      <g
         id="s">
        <use
           transform="matrix(0.06172839506172839,0,0,0.06172839506172839,0,0)"
           xlink:href="#ai"
           id="use287" />
        <use
           transform="matrix(0.06172839506172839,0,0,0.06172839506172839,14.814814814814813,0)"
           xlink:href="#aj"
           id="use288" />
        <use
           transform="matrix(0.06172839506172839,0,0,0.06172839506172839,20.98765432098765,0)"
           xlink:href="#ag"
           id="use289" />
        <use
           transform="matrix(0.06172839506172839,0,0,0.06172839506172839,27.16049382716049,0)"
           xlink:href="#ak"
           id="use290" />
        <use
           transform="matrix(0.06172839506172839,0,0,0.06172839506172839,40.679012345679006,0)"
           xlink:href="#al"
           id="use291" />
        <use
           transform="matrix(0.06172839506172839,0,0,0.06172839506172839,53.02469135802468,0)"
           xlink:href="#ap"
           id="use292" />
        <use
           transform="matrix(0.06172839506172839,0,0,0.06172839506172839,65.37037037037037,0)"
           xlink:href="#aH"
           id="use293" />
        <use
           transform="matrix(0.06172839506172839,0,0,0.06172839506172839,78.88888888888889,0)"
           xlink:href="#aA"
           id="use294" />
        <use
           transform="matrix(0.06172839506172839,0,0,0.06172839506172839,92.4074074074074,0)"
           xlink:href="#aD"
           id="use295" />
        <use
           transform="matrix(0.06172839506172839,0,0,0.06172839506172839,109.69135802469135,0)"
           xlink:href="#aL"
           id="use296" />
        <use
           transform="matrix(0.06172839506172839,0,0,0.06172839506172839,125.67901234567901,0)"
           xlink:href="#aI"
           id="use297" />
        <use
           transform="matrix(0.06172839506172839,0,0,0.06172839506172839,138.02469135802468,0)"
           xlink:href="#aF"
           id="use298" />
        <use
           transform="matrix(0.06172839506172839,0,0,0.06172839506172839,151.5432098765432,0)"
           xlink:href="#ak"
           id="use299" />
        <use
           transform="matrix(0.06172839506172839,0,0,0.06172839506172839,165.0617283950617,0)"
           xlink:href="#aj"
           id="use300" />
        <use
           transform="matrix(0.06172839506172839,0,0,0.06172839506172839,171.23456790123453,0)"
           xlink:href="#al"
           id="use301" />
        <use
           transform="matrix(0.06172839506172839,0,0,0.06172839506172839,183.5802469135802,0)"
           xlink:href="#aB"
           id="use302" />
      </g>
      <g
         id="t">
        <use
           transform="matrix(0.06172839506172839,0,0,0.06172839506172839,0,0)"
           xlink:href="#ae"
           id="use303" />
        <use
           transform="matrix(0.06172839506172839,0,0,0.06172839506172839,17.28395061728395,0)"
           xlink:href="#af"
           id="use304" />
        <use
           transform="matrix(0.06172839506172839,0,0,0.06172839506172839,30.80246913580247,0)"
           xlink:href="#ag"
           id="use305" />
        <use
           transform="matrix(0.06172839506172839,0,0,0.06172839506172839,36.97530864197531,0)"
           xlink:href="#ah"
           id="use306" />
        <use
           transform="matrix(0.06172839506172839,0,0,0.06172839506172839,48.08641975308642,0)"
           xlink:href="#aL"
           id="use307" />
        <use
           transform="matrix(0.06172839506172839,0,0,0.06172839506172839,64.07407407407408,0)"
           xlink:href="#aI"
           id="use308" />
        <use
           transform="matrix(0.06172839506172839,0,0,0.06172839506172839,76.41975308641976,0)"
           xlink:href="#aF"
           id="use309" />
        <use
           transform="matrix(0.06172839506172839,0,0,0.06172839506172839,89.93827160493828,0)"
           xlink:href="#ak"
           id="use310" />
        <use
           transform="matrix(0.06172839506172839,0,0,0.06172839506172839,103.4567901234568,0)"
           xlink:href="#aj"
           id="use311" />
        <use
           transform="matrix(0.06172839506172839,0,0,0.06172839506172839,109.62962962962963,0)"
           xlink:href="#al"
           id="use312" />
        <use
           transform="matrix(0.06172839506172839,0,0,0.06172839506172839,121.97530864197532,0)"
           xlink:href="#aB"
           id="use313" />
      </g>
      <path
         fill="#3a414a"
         d="M24-248c120-7 223 5 221 122C244-46 201 0 124 0H24v-248zM76-40c74 7 117-18 117-86 0-67-45-88-117-82v168"
         id="aM" />
      <g
         id="u">
        <use
           transform="matrix(0.06172839506172839,0,0,0.06172839506172839,0,0)"
           xlink:href="#aJ"
           id="use314" />
        <use
           transform="matrix(0.06172839506172839,0,0,0.06172839506172839,15.987654320987653,0)"
           xlink:href="#aK"
           id="use315" />
        <use
           transform="matrix(0.06172839506172839,0,0,0.06172839506172839,28.333333333333332,0)"
           xlink:href="#aK"
           id="use316" />
        <use
           transform="matrix(0.06172839506172839,0,0,0.06172839506172839,40.67901234567901,0)"
           xlink:href="#aA"
           id="use317" />
        <use
           transform="matrix(0.06172839506172839,0,0,0.06172839506172839,54.19753086419753,0)"
           xlink:href="#af"
           id="use318" />
        <use
           transform="matrix(0.06172839506172839,0,0,0.06172839506172839,67.71604938271605,0)"
           xlink:href="#aF"
           id="use319" />
        <use
           transform="matrix(0.06172839506172839,0,0,0.06172839506172839,81.23456790123457,0)"
           xlink:href="#ao"
           id="use320" />
        <use
           transform="matrix(0.06172839506172839,0,0,0.06172839506172839,88.58024691358025,0)"
           xlink:href="#aM"
           id="use321" />
        <use
           transform="matrix(0.06172839506172839,0,0,0.06172839506172839,104.56790123456791,0)"
           xlink:href="#aI"
           id="use322" />
        <use
           transform="matrix(0.06172839506172839,0,0,0.06172839506172839,116.9135802469136,0)"
           xlink:href="#ao"
           id="use323" />
        <use
           transform="matrix(0.06172839506172839,0,0,0.06172839506172839,124.25925925925928,0)"
           xlink:href="#aI"
           id="use324" />
      </g>
      <path
         fill="#3a414a"
         d="M24-248c93 1 206-16 204 79-1 75-69 88-152 82V0H24v-248zm52 121c47 0 100 7 100-41 0-47-54-39-100-39v80"
         id="aN" />
      <g
         id="v">
        <use
           transform="matrix(0.06172839506172839,0,0,0.06172839506172839,0,0)"
           xlink:href="#az"
           id="use325" />
        <use
           transform="matrix(0.06172839506172839,0,0,0.06172839506172839,15.987654320987653,0)"
           xlink:href="#aH"
           id="use326" />
        <use
           transform="matrix(0.06172839506172839,0,0,0.06172839506172839,29.50617283950617,0)"
           xlink:href="#aI"
           id="use327" />
        <use
           transform="matrix(0.06172839506172839,0,0,0.06172839506172839,41.85185185185185,0)"
           xlink:href="#aG"
           id="use328" />
        <use
           transform="matrix(0.06172839506172839,0,0,0.06172839506172839,55.37037037037037,0)"
           xlink:href="#ao"
           id="use329" />
        <use
           transform="matrix(0.06172839506172839,0,0,0.06172839506172839,62.716049382716044,0)"
           xlink:href="#al"
           id="use330" />
        <use
           transform="matrix(0.06172839506172839,0,0,0.06172839506172839,75.06172839506172,0)"
           xlink:href="#aB"
           id="use331" />
        <use
           transform="matrix(0.06172839506172839,0,0,0.06172839506172839,83.7037037037037,0)"
           xlink:href="#aN"
           id="use332" />
        <use
           transform="matrix(0.06172839506172839,0,0,0.06172839506172839,98.5185185185185,0)"
           xlink:href="#aB"
           id="use333" />
        <use
           transform="matrix(0.06172839506172839,0,0,0.06172839506172839,107.16049382716048,0)"
           xlink:href="#aA"
           id="use334" />
        <use
           transform="matrix(0.06172839506172839,0,0,0.06172839506172839,120.679012345679,0)"
           xlink:href="#an"
           id="use335" />
        <use
           transform="matrix(0.06172839506172839,0,0,0.06172839506172839,134.19753086419752,0)"
           xlink:href="#aB"
           id="use336" />
        <use
           transform="matrix(0.06172839506172839,0,0,0.06172839506172839,142.8395061728395,0)"
           xlink:href="#al"
           id="use337" />
        <use
           transform="matrix(0.06172839506172839,0,0,0.06172839506172839,155.18518518518516,0)"
           xlink:href="#ap"
           id="use338" />
        <use
           transform="matrix(0.06172839506172839,0,0,0.06172839506172839,167.53086419753083,0)"
           xlink:href="#ap"
           id="use339" />
      </g>
      <path
         fill="#3a414a"
         d="M220-157c-53 9-28 100-34 157h-49v-107c1-27-5-49-29-50C55-147 81-57 75 0H25l-1-190h47c2 12-1 28 3 38 10-53 101-56 108 0 13-22 24-43 59-42 82 1 51 116 57 194h-49v-107c-1-25-5-48-29-50"
         id="aO" />
      <g
         id="w">
        <use
           transform="matrix(0.06172839506172839,0,0,0.06172839506172839,0,0)"
           xlink:href="#ae"
           id="use340" />
        <use
           transform="matrix(0.06172839506172839,0,0,0.06172839506172839,17.28395061728395,0)"
           xlink:href="#af"
           id="use341" />
        <use
           transform="matrix(0.06172839506172839,0,0,0.06172839506172839,30.80246913580247,0)"
           xlink:href="#ag"
           id="use342" />
        <use
           transform="matrix(0.06172839506172839,0,0,0.06172839506172839,36.97530864197531,0)"
           xlink:href="#ah"
           id="use343" />
        <use
           transform="matrix(0.06172839506172839,0,0,0.06172839506172839,48.08641975308642,0)"
           xlink:href="#aJ"
           id="use344" />
        <use
           transform="matrix(0.06172839506172839,0,0,0.06172839506172839,64.07407407407408,0)"
           xlink:href="#ao"
           id="use345" />
        <use
           transform="matrix(0.06172839506172839,0,0,0.06172839506172839,71.41975308641976,0)"
           xlink:href="#ao"
           id="use346" />
        <use
           transform="matrix(0.06172839506172839,0,0,0.06172839506172839,78.76543209876544,0)"
           xlink:href="#al"
           id="use347" />
        <use
           transform="matrix(0.06172839506172839,0,0,0.06172839506172839,91.11111111111113,0)"
           xlink:href="#aO"
           id="use348" />
        <use
           transform="matrix(0.06172839506172839,0,0,0.06172839506172839,110.86419753086422,0)"
           xlink:href="#aG"
           id="use349" />
        <use
           transform="matrix(0.06172839506172839,0,0,0.06172839506172839,124.38271604938274,0)"
           xlink:href="#ao"
           id="use350" />
        <use
           transform="matrix(0.06172839506172839,0,0,0.06172839506172839,131.7283950617284,0)"
           xlink:href="#ap"
           id="use351" />
      </g>
      <g
         id="x">
        <use
           transform="matrix(0.06172839506172839,0,0,0.06172839506172839,0,0)"
           xlink:href="#az"
           id="use352" />
        <use
           transform="matrix(0.06172839506172839,0,0,0.06172839506172839,15.987654320987653,0)"
           xlink:href="#aA"
           id="use353" />
        <use
           transform="matrix(0.06172839506172839,0,0,0.06172839506172839,29.50617283950617,0)"
           xlink:href="#af"
           id="use354" />
        <use
           transform="matrix(0.06172839506172839,0,0,0.06172839506172839,43.02469135802469,0)"
           xlink:href="#aB"
           id="use355" />
        <use
           transform="matrix(0.06172839506172839,0,0,0.06172839506172839,51.666666666666664,0)"
           xlink:href="#ap"
           id="use356" />
        <use
           transform="matrix(0.06172839506172839,0,0,0.06172839506172839,64.01234567901234,0)"
           xlink:href="#al"
           id="use357" />
        <use
           transform="matrix(0.06172839506172839,0,0,0.06172839506172839,76.35802469135803,0)"
           xlink:href="#aM"
           id="use358" />
        <use
           transform="matrix(0.06172839506172839,0,0,0.06172839506172839,92.34567901234568,0)"
           xlink:href="#aI"
           id="use359" />
        <use
           transform="matrix(0.06172839506172839,0,0,0.06172839506172839,104.69135802469137,0)"
           xlink:href="#ao"
           id="use360" />
        <use
           transform="matrix(0.06172839506172839,0,0,0.06172839506172839,112.03703703703705,0)"
           xlink:href="#aI"
           id="use361" />
      </g>
      <g
         id="y">
        <use
           transform="matrix(0.06172839506172839,0,0,0.06172839506172839,0,0)"
           xlink:href="#az"
           id="use362" />
        <use
           transform="matrix(0.06172839506172839,0,0,0.06172839506172839,15.987654320987653,0)"
           xlink:href="#aH"
           id="use363" />
        <use
           transform="matrix(0.06172839506172839,0,0,0.06172839506172839,29.50617283950617,0)"
           xlink:href="#aI"
           id="use364" />
        <use
           transform="matrix(0.06172839506172839,0,0,0.06172839506172839,41.85185185185185,0)"
           xlink:href="#aG"
           id="use365" />
        <use
           transform="matrix(0.06172839506172839,0,0,0.06172839506172839,55.37037037037037,0)"
           xlink:href="#ao"
           id="use366" />
        <use
           transform="matrix(0.06172839506172839,0,0,0.06172839506172839,62.716049382716044,0)"
           xlink:href="#al"
           id="use367" />
        <use
           transform="matrix(0.06172839506172839,0,0,0.06172839506172839,75.06172839506172,0)"
           xlink:href="#aB"
           id="use368" />
        <use
           transform="matrix(0.06172839506172839,0,0,0.06172839506172839,83.7037037037037,0)"
           xlink:href="#aM"
           id="use369" />
        <use
           transform="matrix(0.06172839506172839,0,0,0.06172839506172839,99.69135802469135,0)"
           xlink:href="#aI"
           id="use370" />
        <use
           transform="matrix(0.06172839506172839,0,0,0.06172839506172839,112.03703703703704,0)"
           xlink:href="#ao"
           id="use371" />
        <use
           transform="matrix(0.06172839506172839,0,0,0.06172839506172839,119.38271604938272,0)"
           xlink:href="#aI"
           id="use372" />
      </g>
      <g
         id="z">
        <use
           transform="matrix(0.06172839506172839,0,0,0.06172839506172839,0,0)"
           xlink:href="#ae"
           id="use373" />
        <use
           transform="matrix(0.06172839506172839,0,0,0.06172839506172839,17.28395061728395,0)"
           xlink:href="#af"
           id="use374" />
        <use
           transform="matrix(0.06172839506172839,0,0,0.06172839506172839,30.80246913580247,0)"
           xlink:href="#ag"
           id="use375" />
        <use
           transform="matrix(0.06172839506172839,0,0,0.06172839506172839,36.97530864197531,0)"
           xlink:href="#ah"
           id="use376" />
        <use
           transform="matrix(0.06172839506172839,0,0,0.06172839506172839,48.08641975308642,0)"
           xlink:href="#aM"
           id="use377" />
        <use
           transform="matrix(0.06172839506172839,0,0,0.06172839506172839,64.07407407407408,0)"
           xlink:href="#aI"
           id="use378" />
        <use
           transform="matrix(0.06172839506172839,0,0,0.06172839506172839,76.41975308641976,0)"
           xlink:href="#ao"
           id="use379" />
        <use
           transform="matrix(0.06172839506172839,0,0,0.06172839506172839,83.76543209876544,0)"
           xlink:href="#aI"
           id="use380" />
      </g>
      <g
         id="A">
        <use
           transform="matrix(0.06172839506172839,0,0,0.06172839506172839,0,0)"
           xlink:href="#I"
           id="use381" />
        <use
           transform="matrix(0.06172839506172839,0,0,0.06172839506172839,15.987654320987653,0)"
           xlink:href="#S"
           id="use382" />
        <use
           transform="matrix(0.06172839506172839,0,0,0.06172839506172839,27.098765432098766,0)"
           xlink:href="#Q"
           id="use383" />
        <use
           transform="matrix(0.06172839506172839,0,0,0.06172839506172839,39.44444444444444,0)"
           xlink:href="#R"
           id="use384" />
        <use
           transform="matrix(0.06172839506172839,0,0,0.06172839506172839,46.79012345679012,0)"
           xlink:href="#W"
           id="use385" />
        <use
           transform="matrix(0.06172839506172839,0,0,0.06172839506172839,62.77777777777777,0)"
           xlink:href="#U"
           id="use386" />
        <use
           transform="matrix(0.06172839506172839,0,0,0.06172839506172839,75.12345679012346,0)"
           xlink:href="#T"
           id="use387" />
        <use
           transform="matrix(0.06172839506172839,0,0,0.06172839506172839,81.29629629629629,0)"
           xlink:href="#U"
           id="use388" />
      </g>
      <g
         id="B">
        <use
           transform="matrix(0.06172839506172839,0,0,0.06172839506172839,0,0)"
           xlink:href="#aw"
           id="use389" />
        <use
           transform="matrix(0.06172839506172839,0,0,0.06172839506172839,15.987654320987653,0)"
           xlink:href="#L"
           id="use390" />
        <use
           transform="matrix(0.06172839506172839,0,0,0.06172839506172839,28.333333333333332,0)"
           xlink:href="#V"
           id="use391" />
        <use
           transform="matrix(0.06172839506172839,0,0,0.06172839506172839,40.67901234567901,0)"
           xlink:href="#T"
           id="use392" />
        <use
           transform="matrix(0.06172839506172839,0,0,0.06172839506172839,46.851851851851855,0)"
           xlink:href="#Q"
           id="use393" />
        <use
           transform="matrix(0.06172839506172839,0,0,0.06172839506172839,59.19753086419753,0)"
           xlink:href="#V"
           id="use394" />
        <use
           transform="matrix(0.06172839506172839,0,0,0.06172839506172839,71.54320987654322,0)"
           xlink:href="#T"
           id="use395" />
        <use
           transform="matrix(0.06172839506172839,0,0,0.06172839506172839,77.71604938271605,0)"
           xlink:href="#W"
           id="use396" />
        <use
           transform="matrix(0.06172839506172839,0,0,0.06172839506172839,93.70370370370371,0)"
           xlink:href="#U"
           id="use397" />
        <use
           transform="matrix(0.06172839506172839,0,0,0.06172839506172839,106.0493827160494,0)"
           xlink:href="#T"
           id="use398" />
        <use
           transform="matrix(0.06172839506172839,0,0,0.06172839506172839,112.22222222222223,0)"
           xlink:href="#U"
           id="use399" />
      </g>
      <g
         id="C">
        <use
           transform="matrix(0.06172839506172839,0,0,0.06172839506172839,0,0)"
           xlink:href="#az"
           id="use400" />
        <use
           transform="matrix(0.06172839506172839,0,0,0.06172839506172839,15.987654320987653,0)"
           xlink:href="#aA"
           id="use401" />
        <use
           transform="matrix(0.06172839506172839,0,0,0.06172839506172839,29.50617283950617,0)"
           xlink:href="#af"
           id="use402" />
        <use
           transform="matrix(0.06172839506172839,0,0,0.06172839506172839,43.02469135802469,0)"
           xlink:href="#aB"
           id="use403" />
        <use
           transform="matrix(0.06172839506172839,0,0,0.06172839506172839,51.666666666666664,0)"
           xlink:href="#ap"
           id="use404" />
        <use
           transform="matrix(0.06172839506172839,0,0,0.06172839506172839,64.01234567901234,0)"
           xlink:href="#al"
           id="use405" />
        <use
           transform="matrix(0.06172839506172839,0,0,0.06172839506172839,76.35802469135803,0)"
           xlink:href="#aL"
           id="use406" />
        <use
           transform="matrix(0.06172839506172839,0,0,0.06172839506172839,92.34567901234568,0)"
           xlink:href="#aI"
           id="use407" />
        <use
           transform="matrix(0.06172839506172839,0,0,0.06172839506172839,104.69135802469137,0)"
           xlink:href="#aF"
           id="use408" />
        <use
           transform="matrix(0.06172839506172839,0,0,0.06172839506172839,118.20987654320989,0)"
           xlink:href="#ak"
           id="use409" />
        <use
           transform="matrix(0.06172839506172839,0,0,0.06172839506172839,131.7283950617284,0)"
           xlink:href="#aj"
           id="use410" />
        <use
           transform="matrix(0.06172839506172839,0,0,0.06172839506172839,137.90123456790124,0)"
           xlink:href="#al"
           id="use411" />
        <use
           transform="matrix(0.06172839506172839,0,0,0.06172839506172839,150.2469135802469,0)"
           xlink:href="#aB"
           id="use412" />
      </g>
      <path
         fill="#3a414a"
         d="M140-251c80 0 125 45 125 126S219 4 139 4C58 4 15-44 15-125s44-126 125-126zm-1 214c52 0 73-35 73-88 0-50-21-86-72-86-52 0-73 35-73 86s22 88 72 88"
         id="aP" />
      <path
         fill="#3a414a"
         d="M135-194c52 0 70 43 70 98 0 56-19 99-73 100-30 1-46-15-58-35L72 0H24l1-261h50v104c11-23 29-37 60-37zM114-30c31 0 40-27 40-66 0-37-7-63-39-63s-41 28-41 65c0 36 8 64 40 64"
         id="aQ" />
      <path
         fill="#3a414a"
         d="M25-224v-37h50v37H25zM75 22c2 45-34 59-81 51V38c22 5 31-5 31-27v-201h50V22"
         id="aR" />
      <g
         id="D">
        <use
           transform="matrix(0.06172839506172839,0,0,0.06172839506172839,0,0)"
           xlink:href="#aJ"
           id="use413" />
        <use
           transform="matrix(0.06172839506172839,0,0,0.06172839506172839,15.987654320987653,0)"
           xlink:href="#aK"
           id="use414" />
        <use
           transform="matrix(0.06172839506172839,0,0,0.06172839506172839,28.333333333333332,0)"
           xlink:href="#aK"
           id="use415" />
        <use
           transform="matrix(0.06172839506172839,0,0,0.06172839506172839,40.67901234567901,0)"
           xlink:href="#aA"
           id="use416" />
        <use
           transform="matrix(0.06172839506172839,0,0,0.06172839506172839,54.19753086419753,0)"
           xlink:href="#af"
           id="use417" />
        <use
           transform="matrix(0.06172839506172839,0,0,0.06172839506172839,67.71604938271605,0)"
           xlink:href="#aF"
           id="use418" />
        <use
           transform="matrix(0.06172839506172839,0,0,0.06172839506172839,81.23456790123457,0)"
           xlink:href="#ao"
           id="use419" />
        <use
           transform="matrix(0.06172839506172839,0,0,0.06172839506172839,88.58024691358025,0)"
           xlink:href="#aP"
           id="use420" />
        <use
           transform="matrix(0.06172839506172839,0,0,0.06172839506172839,105.8641975308642,0)"
           xlink:href="#aQ"
           id="use421" />
        <use
           transform="matrix(0.06172839506172839,0,0,0.06172839506172839,119.38271604938272,0)"
           xlink:href="#aR"
           id="use422" />
      </g>
      <g
         id="E">
        <use
           transform="matrix(0.06172839506172839,0,0,0.06172839506172839,0,0)"
           xlink:href="#az"
           id="use423" />
        <use
           transform="matrix(0.06172839506172839,0,0,0.06172839506172839,15.987654320987653,0)"
           xlink:href="#aA"
           id="use424" />
        <use
           transform="matrix(0.06172839506172839,0,0,0.06172839506172839,29.50617283950617,0)"
           xlink:href="#af"
           id="use425" />
        <use
           transform="matrix(0.06172839506172839,0,0,0.06172839506172839,43.02469135802469,0)"
           xlink:href="#aB"
           id="use426" />
        <use
           transform="matrix(0.06172839506172839,0,0,0.06172839506172839,51.666666666666664,0)"
           xlink:href="#ap"
           id="use427" />
        <use
           transform="matrix(0.06172839506172839,0,0,0.06172839506172839,64.01234567901234,0)"
           xlink:href="#al"
           id="use428" />
        <use
           transform="matrix(0.06172839506172839,0,0,0.06172839506172839,76.35802469135803,0)"
           xlink:href="#aP"
           id="use429" />
        <use
           transform="matrix(0.06172839506172839,0,0,0.06172839506172839,93.64197530864197,0)"
           xlink:href="#aQ"
           id="use430" />
        <use
           transform="matrix(0.06172839506172839,0,0,0.06172839506172839,107.1604938271605,0)"
           xlink:href="#aR"
           id="use431" />
      </g>
      <g
         id="F">
        <use
           transform="matrix(0.06172839506172839,0,0,0.06172839506172839,0,0)"
           xlink:href="#ae"
           id="use432" />
        <use
           transform="matrix(0.06172839506172839,0,0,0.06172839506172839,17.28395061728395,0)"
           xlink:href="#af"
           id="use433" />
        <use
           transform="matrix(0.06172839506172839,0,0,0.06172839506172839,30.80246913580247,0)"
           xlink:href="#ag"
           id="use434" />
        <use
           transform="matrix(0.06172839506172839,0,0,0.06172839506172839,36.97530864197531,0)"
           xlink:href="#ah"
           id="use435" />
        <use
           transform="matrix(0.06172839506172839,0,0,0.06172839506172839,48.08641975308642,0)"
           xlink:href="#aP"
           id="use436" />
        <use
           transform="matrix(0.06172839506172839,0,0,0.06172839506172839,65.37037037037037,0)"
           xlink:href="#aQ"
           id="use437" />
        <use
           transform="matrix(0.06172839506172839,0,0,0.06172839506172839,78.88888888888889,0)"
           xlink:href="#aR"
           id="use438" />
      </g>
      <path
         fill="#3a414a"
         d="M123 10C108 53 80 86 19 72V37c35 8 53-11 59-39L3-190h52l48 148c12-52 28-100 44-148h51"
         id="aS" />
      <path
         fill="#3a414a"
         d="M240-174c0 40-23 61-54 70L253 0h-59l-57-94H76V0H24v-248c93 4 217-23 216 74zM76-134c48-2 112 12 112-38 0-48-66-32-112-35v73"
         id="aT" />
      <path
         fill="#3a414a"
         d="M128 0H69L1-190h53L99-40l48-150h52"
         id="aU" />
      <g
         id="G">
        <use
           transform="matrix(0.06172839506172839,0,0,0.06172839506172839,0,0)"
           xlink:href="#aM"
           id="use439" />
        <use
           transform="matrix(0.06172839506172839,0,0,0.06172839506172839,15.987654320987653,0)"
           xlink:href="#aI"
           id="use440" />
        <use
           transform="matrix(0.06172839506172839,0,0,0.06172839506172839,28.333333333333332,0)"
           xlink:href="#ag"
           id="use441" />
        <use
           transform="matrix(0.06172839506172839,0,0,0.06172839506172839,34.50617283950617,0)"
           xlink:href="#aj"
           id="use442" />
        <use
           transform="matrix(0.06172839506172839,0,0,0.06172839506172839,40.67901234567901,0)"
           xlink:href="#aS"
           id="use443" />
        <use
           transform="matrix(0.06172839506172839,0,0,0.06172839506172839,53.02469135802469,0)"
           xlink:href="#aT"
           id="use444" />
        <use
           transform="matrix(0.06172839506172839,0,0,0.06172839506172839,69.01234567901234,0)"
           xlink:href="#al"
           id="use445" />
        <use
           transform="matrix(0.06172839506172839,0,0,0.06172839506172839,81.35802469135803,0)"
           xlink:href="#aU"
           id="use446" />
        <use
           transform="matrix(0.06172839506172839,0,0,0.06172839506172839,93.70370370370371,0)"
           xlink:href="#ag"
           id="use447" />
        <use
           transform="matrix(0.06172839506172839,0,0,0.06172839506172839,99.87654320987654,0)"
           xlink:href="#al"
           id="use448" />
        <use
           transform="matrix(0.06172839506172839,0,0,0.06172839506172839,112.22222222222223,0)"
           xlink:href="#aD"
           id="use449" />
        <use
           transform="matrix(0.06172839506172839,0,0,0.06172839506172839,129.50617283950618,0)"
           xlink:href="#ae"
           id="use450" />
        <use
           transform="matrix(0.06172839506172839,0,0,0.06172839506172839,146.79012345679013,0)"
           xlink:href="#af"
           id="use451" />
        <use
           transform="matrix(0.06172839506172839,0,0,0.06172839506172839,160.30864197530863,0)"
           xlink:href="#ag"
           id="use452" />
        <use
           transform="matrix(0.06172839506172839,0,0,0.06172839506172839,166.48148148148147,0)"
           xlink:href="#ah"
           id="use453" />
      </g>
      <g
         id="H">
        <use
           transform="matrix(0.06172839506172839,0,0,0.06172839506172839,0,0)"
           xlink:href="#aT"
           id="use454" />
        <use
           transform="matrix(0.06172839506172839,0,0,0.06172839506172839,15.987654320987653,0)"
           xlink:href="#al"
           id="use455" />
        <use
           transform="matrix(0.06172839506172839,0,0,0.06172839506172839,28.333333333333332,0)"
           xlink:href="#ao"
           id="use456" />
        <use
           transform="matrix(0.06172839506172839,0,0,0.06172839506172839,35.67901234567901,0)"
           xlink:href="#aB"
           id="use457" />
        <use
           transform="matrix(0.06172839506172839,0,0,0.06172839506172839,44.32098765432099,0)"
           xlink:href="#aS"
           id="use458" />
      </g>
    </defs>
    <path
       d="m 746.46478,1062.042 14.29362,4.608 v -9.26 z m 2.35716,54.3864 14.29362,4.6079 v -9.26 z m 523.77796,-313.36511 14.2937,4.608 v -9.26 z m -0.2155,17.92746 14.2937,4.608 v -9.26 z m -0.031,20.03125 14.2937,4.608 v -9.26 z"
       style="fill:#3a414a;stroke:#3a414a"
       id="path1-5"
       sodipodi:nodetypes="cccccccccccccccccccc" />
  </g>
  <text
     xml:space="preserve"
     style="font-style:normal;font-variant:normal;font-weight:normal;font-stretch:normal;font-size:21.3333px;font-family:'Lucida Sans';-inkscape-font-specification:'Lucida Sans';fill:#000000;stroke:#3a414a;stroke-width:1.09228;stroke-miterlimit:4.1;stroke-dasharray:2, 0.999999;stroke-opacity:0;paint-order:markers stroke fill"
     x="765.91742"
     y="679.62665"
     id="text834"><tspan
       id="tspan834"
       x="765.91742"
       y="679.62665"
       style="font-weight:bold;font-size:21.3333px"
       sodipodi:role="line">CustomQuiz</tspan><tspan
       x="765.91742"
       y="706.29327"
       style="font-weight:bold;font-size:21.3333px"
       id="tspan835"
       sodipodi:role="line">Generator</tspan></text>
</svg>
